<?xml version="1.0" encoding="UTF-8"?>
<!DOCTYPE svg PUBLIC "-//W3C//DTD SVG 1.1//EN" "http://www.w3.org/Graphics/SVG/1.1/DTD/svg11.dtd">
<!-- Creator: CorelDRAW 2020 (64-Bit) -->
<svg xmlns="http://www.w3.org/2000/svg" xml:space="preserve" width="49.7416mm" height="49.7416mm" version="1.1" style="shape-rendering:geometricPrecision; text-rendering:geometricPrecision; image-rendering:optimizeQuality; fill-rule:evenodd; clip-rule:evenodd"
viewBox="0 0 4974.16 4974.16"
 xmlns:xlink="http://www.w3.org/1999/xlink"
 xmlns:xodm="http://www.corel.com/coreldraw/odm/2003">
 <defs>
  <style type="text/css">
   <![CDATA[
    .fil0 {fill:#37B34A;fill-rule:nonzero}
    .fil1 {fill:#8BC541;fill-rule:nonzero}
   ]]>
  </style>
 </defs>
 <g id="Layer_x0020_1">
  <metadata id="CorelCorpID_0Corel-Layer"/>
  <g id="_773078256">
   <path class="fil0" d="M729.55 886.09c162.79,391.11 525.19,650.4 1030.77,814.91 1244.18,331.66 1317.13,1138.76 898.48,1936.31l-26.11 0 0 -875.04 201.94 0 -767.91 -683.47 -762.69 682.61 207.2 0 0 294.23c-232.55,-214.19 -436.22,-431.87 -598.9,-654.7 597.83,1257.37 1964.15,1828.35 3875.97,1112.64 -742.8,374.89 -1527.41,483.47 -2350.63,344.73 -1493.97,276.9 -2523.17,-517.02 -1708.12,-2972.22z"/>
   <path class="fil0" d="M1899.65 3306.38l0 -353.37 323.73 0 0 532.76c-113.98,-33.21 -220.62,-98.72 -323.73,-179.39z"/>
   <path class="fil0" d="M2189.34 2529.03c0,70.67 -57.24,127.92 -127.77,127.92 -70.64,0 -127.89,-57.25 -127.89,-127.92 0,-70.53 57.25,-127.88 127.89,-127.88 70.53,0 127.77,57.35 127.77,127.88z"/>
   <path class="fil1" d="M1779.41 1570.36c154.34,-629.41 803.43,-1011.5 1324.37,-1055.05 -538.02,512.63 -236.5,1160.96 164.37,1825.51 209.14,507.03 64.89,921.81 -457.01,1238.1 313.36,-705.19 337.92,-1581.72 -1031.73,-2008.56z"/>
  </g>
 </g>
</svg>
