<?xml version="1.0" encoding="UTF-8"?>
<!DOCTYPE svg PUBLIC "-//W3C//DTD SVG 1.1//EN" "http://www.w3.org/Graphics/SVG/1.1/DTD/svg11.dtd">
<!-- Creator: CorelDRAW 2020 (64-Bit) -->
<svg xmlns="http://www.w3.org/2000/svg" xml:space="preserve" width="49.7416mm" height="49.7416mm" version="1.1" style="shape-rendering:geometricPrecision; text-rendering:geometricPrecision; image-rendering:optimizeQuality; fill-rule:evenodd; clip-rule:evenodd"
viewBox="0 0 4974.16 4974.16"
 xmlns:xlink="http://www.w3.org/1999/xlink"
 xmlns:xodm="http://www.corel.com/coreldraw/odm/2003">
 <defs>
  <style type="text/css">
   <![CDATA[
    .str0 {stroke:#231F20;stroke-width:7.62;stroke-miterlimit:10}
    .fil14 {fill:none;fill-rule:nonzero}
    .fil0 {fill:black;fill-rule:nonzero}
    .fil13 {fill:url(#id1)}
    .fil3 {fill:url(#id2)}
    .fil1 {fill:url(#id3)}
    .fil10 {fill:url(#id4)}
    .fil7 {fill:url(#id5)}
    .fil4 {fill:url(#id6)}
    .fil11 {fill:url(#id7)}
    .fil12 {fill:url(#id8)}
    .fil9 {fill:url(#id9)}
    .fil5 {fill:url(#id10)}
    .fil8 {fill:url(#id11)}
    .fil6 {fill:url(#id12)}
    .fil2 {fill:url(#id13)}
   ]]>
  </style>
   <clipPath id="id0">
    <path d="M1064.63 1973.1c-152.92,78.92 -263.62,237.8 -277.12,404.02l0 0 103.79 0 -2.08 50.28 -105.51 0c1.73,61.46 10.03,118.03 25.94,168.66l0 0 109.33 0c52.58,126.06 151.53,199.74 271.57,250.02l0 0c0,0 -115.89,25.49 -163.98,6.29l0 0c-68.15,-25.49 -142.53,-114.54 -143.57,-115.58l0 0c122.47,151.89 284.72,228.02 500.25,200.43l0 0c261.2,-36.66 519.63,-327.19 384.36,-695.94l0 0 -67.8 0c-23.18,-47.49 -58.82,-92.18 -102.06,-135.83l0 0 92.71 0c-96.17,-114.19 -242.51,-184.38 -398.19,-184.38l0 0c-75.08,0 -152.57,16.42 -227.64,52.03l0 0z"/>
   </clipPath>
  <radialGradient id="id1" gradientUnits="userSpaceOnUse" gradientTransform="matrix(6.25665 -0 -0 -6.25682 -15817 17607)" cx="3008.93" cy="2426.32" r="136.91" fx="3008.93" fy="2426.32">
   <stop offset="0" style="stop-opacity:1; stop-color:#37B34A"/>
   <stop offset="0.960784" style="stop-opacity:1; stop-color:#8BC53F"/>
   <stop offset="1" style="stop-opacity:1; stop-color:#8BC53F"/>
  </radialGradient>
  <radialGradient id="id2" gradientUnits="userSpaceOnUse" gradientTransform="matrix(4.63026 -0 -0 -4.63039 -10927 13653)" xlink:href="#id1" cx="3010.02" cy="2424.79" r="185" fx="3010.02" fy="2424.79">
  </radialGradient>
  <radialGradient id="id3" gradientUnits="userSpaceOnUse" gradientTransform="matrix(6.04148 -0 -0 -6.04132 -15164 17071)" xlink:href="#id1" cx="3007.9" cy="2424.41" r="141.79" fx="3007.9" fy="2424.41">
  </radialGradient>
  <radialGradient id="id4" gradientUnits="userSpaceOnUse" gradientTransform="matrix(4.62976 -0 -0 -4.62988 -10922 13660)" xlink:href="#id1" cx="3009.03" cy="2426.32" r="185.02" fx="3009.03" fy="2426.32">
  </radialGradient>
  <radialGradient id="id5" gradientUnits="userSpaceOnUse" gradientTransform="matrix(4.55347 -0 -0 -4.55347 -10690 13479)" xlink:href="#id1" cx="3008.46" cy="2427.15" r="188.12" fx="3008.46" fy="2427.15">
  </radialGradient>
  <radialGradient id="id6" gradientUnits="userSpaceOnUse" gradientTransform="matrix(4.63026 -0 -0 -4.63039 -10922 13653)" xlink:href="#id1" cx="3008.59" cy="2424.79" r="185" fx="3008.59" fy="2424.79">
  </radialGradient>
  <radialGradient id="id7" gradientUnits="userSpaceOnUse" gradientTransform="matrix(4.63001 -0 -0 -4.62951 -10925 13659)" xlink:href="#id1" cx="3009.5" cy="2426.3" r="185.03" fx="3009.5" fy="2426.3">
  </radialGradient>
  <radialGradient id="id8" gradientUnits="userSpaceOnUse" gradientTransform="matrix(4.72423 -0 -0 -4.72436 -11203 13889)" xlink:href="#id1" cx="3008.16" cy="2426.32" r="181.32" fx="3008.16" fy="2426.32">
  </radialGradient>
  <radialGradient id="id9" gradientUnits="userSpaceOnUse" gradientTransform="matrix(4.55363 -0 -0 -4.55347 -10697 13479)" xlink:href="#id1" cx="3010.18" cy="2427.15" r="188.12" fx="3010.18" fy="2427.15">
  </radialGradient>
  <radialGradient id="id10" gradientUnits="userSpaceOnUse" gradientTransform="matrix(4.46424 -0 -0 -4.46435 -10427 13245)" xlink:href="#id1" cx="3010.01" cy="2423.95" r="191.88" fx="3010.01" fy="2423.95">
  </radialGradient>
  <radialGradient id="id11" gradientUnits="userSpaceOnUse" gradientTransform="matrix(4.54711 -0 -0 -4.54706 -10678 13460)" xlink:href="#id1" cx="3010.34" cy="2426.58" r="188.39" fx="3010.34" fy="2426.58">
  </radialGradient>
  <radialGradient id="id12" gradientUnits="userSpaceOnUse" gradientTransform="matrix(5.98289 -0 -0 -5.98282 -15002 16944)" xlink:href="#id1" cx="3010.71" cy="2426.58" r="143.18" fx="3010.71" fy="2426.58">
  </radialGradient>
  <radialGradient id="id13" gradientUnits="userSpaceOnUse" gradientTransform="matrix(4.54742 -0 -0 -4.54754 -10676 13454)" xlink:href="#id1" cx="3009.61" cy="2425.2" r="188.37" fx="3009.61" fy="2425.2">
  </radialGradient>
 </defs>
 <g id="Layer_x0020_1">
  <metadata id="CorelCorpID_0Corel-Layer"/>
  <path class="fil0" d="M2203.39 2083.54l-62.1 65.56c-13.36,-11.85 -26.71,-20.7 -39.91,-26.4 -13.2,-5.56 -26.7,-8.41 -40.5,-8.41 -28.2,0 -51.9,9.76 -71.1,29.41 -19.2,19.65 -28.8,43.95 -28.8,73.05 0,28.5 9.3,52.35 27.9,71.4 18.6,19.05 41.55,28.66 69,28.66 19.35,0 36.3,-5.4 51.15,-16.36 14.85,-10.8 25.81,-25.95 32.86,-45.45l-91.06 0 0 -82.05 193.36 0 0 15.45c0,24.45 -1.8,46.2 -5.4,65.25 -3.75,19.05 -9.3,36.15 -16.8,51.6 -15.75,32.26 -38.1,57.61 -67.05,76.06 -29.11,18.45 -61.36,27.75 -96.61,27.75 -26.55,0 -51.3,-4.8 -74.55,-14.55 -23.25,-9.6 -43.96,-23.55 -62.11,-41.7 -17.85,-18.3 -31.65,-39 -41.1,-62.26 -9.6,-23.1 -14.4,-47.55 -14.4,-73.2 0,-25.65 4.8,-50.1 14.4,-73.05 9.45,-22.96 23.4,-43.66 41.55,-61.81 18.15,-18.45 39.01,-32.55 62.86,-42.15 23.85,-9.6 49.05,-14.4 75.9,-14.4 26.25,0 51.15,4.8 74.86,14.25 23.7,9.6 46.2,24 67.65,43.35zm80.85 318.62l0 -241.96c0,-40.06 12.15,-72.46 36.6,-97.21 24.3,-24.75 56.26,-37.05 95.71,-37.05 36,0 66.6,10.5 91.95,31.65 25.2,21.15 37.81,46.35 37.81,75.76 0,18.75 -5.41,35.4 -16.06,49.65 -10.65,14.25 -25.5,24.6 -44.4,30.75 23.55,2.55 40.35,9.75 50.7,21.6 10.21,11.85 15.31,30.15 15.31,55.05l0 112.21 -91.96 0 0 -89.4c0,-19.51 -4.05,-32.86 -12.3,-40.06 -8.25,-7.2 -24.3,-10.8 -47.85,-10.8l-8.55 0 0 -82.95 13.65 0c14.85,0 25.95,-3 33.6,-8.85 7.65,-5.85 11.4,-14.55 11.4,-26.1 0,-10.05 -3.15,-18.3 -9.6,-24.91 -6.45,-6.45 -14.55,-9.75 -24.3,-9.75 -12.45,0 -22.2,4.5 -29.1,13.36 -6.9,9 -10.35,21.75 -10.35,38.1l0 240.91 -92.26 0zm538.83 0.45l-9.6 0c-32.25,0 -60.3,-2.55 -84.45,-7.8 -24.15,-5.1 -44.4,-12.9 -61.05,-23.4 -27.01,-17.4 -47.86,-39.45 -62.56,-66.16 -14.85,-26.7 -22.2,-55.95 -22.2,-87.9 0,-31.95 7.35,-61.05 22.05,-87.6 14.55,-26.56 35.55,-48.46 62.71,-65.86 16.65,-10.5 36.9,-18.3 61.05,-23.55 24.15,-5.25 52.2,-7.8 84.45,-7.8l9.6 0 0 84.3c-2.4,-0.15 -4.95,-0.3 -7.65,-0.45 -2.7,-0.15 -6.6,-0.15 -11.55,-0.15 -32.4,0 -58.2,4.8 -77.25,14.26 -19.05,9.45 -32.85,24.15 -41.1,43.95l137.55 0 0 82.65 -139.35 0c6.15,20.25 19.5,35.55 39.9,45.75 20.25,10.36 47.7,15.46 82.05,15.46 4.65,0 8.25,0 10.8,-0.15 2.55,0 4.65,0 6.6,0l0 84.45zm276.76 0l-9.6 0c-32.25,0 -60.3,-2.55 -84.45,-7.8 -24.15,-5.1 -44.4,-12.9 -61.05,-23.4 -27.01,-17.4 -47.86,-39.45 -62.56,-66.16 -14.85,-26.7 -22.2,-55.95 -22.2,-87.9 0,-31.95 7.35,-61.05 22.05,-87.6 14.55,-26.56 35.55,-48.46 62.71,-65.86 16.65,-10.5 36.9,-18.3 61.05,-23.55 24.15,-5.25 52.2,-7.8 84.45,-7.8l9.6 0 0 84.3c-2.4,-0.15 -4.95,-0.3 -7.65,-0.45 -2.7,-0.15 -6.6,-0.15 -11.55,-0.15 -32.4,0 -58.2,4.8 -77.25,14.26 -19.05,9.45 -32.85,24.15 -41.1,43.95l137.55 0 0 82.65 -139.35 0c6.15,20.25 19.5,35.55 39.9,45.75 20.25,10.36 47.7,15.46 82.05,15.46 4.65,0 8.25,0 10.8,-0.15 2.55,0 4.65,0 6.6,0l0 84.45zm49.05 0l0 -313.22c0,-19.8 5.1,-35.55 15.45,-47.1 10.2,-11.55 23.85,-17.4 40.95,-17.4 14.11,0 26.26,4.05 36.46,12 10.05,7.95 21.3,23.4 33.75,46.05l48.6 87.91c10.2,18.45 18.15,33.9 24,46.5 5.7,12.6 10.35,24.15 13.8,34.8 -2.1,-22.65 -3.75,-43.35 -4.8,-61.8 -1.2,-18.45 -1.8,-32.55 -1.8,-42.3l0 -115.51 88.96 0 0 325.67c0,15 -4.2,27.15 -12.75,36.45 -8.55,9.3 -19.8,13.95 -33.76,13.95 -11.85,0 -22.05,-3.15 -30.3,-9.3 -8.4,-6.15 -17.55,-18.15 -27.3,-36l-72.15 -130.21c-1.5,-2.85 -3.75,-7.05 -6.9,-12.6 -16.05,-28.8 -27,-52.05 -33.15,-69.75 3.45,24.6 6,46.95 7.65,67.2 1.65,20.25 2.4,39.3 2.4,57l0 127.66 -89.11 0z"/>
  <path class="fil0" d="M1875.17 2825.96l0 -238.21c0,-41.55 12.45,-75.01 37.2,-100.36 24.75,-25.35 57.61,-38.1 98.26,-38.1 37.35,0 68.55,12.45 93.9,37.2 25.2,24.9 37.81,55.5 37.81,91.96 0,38.7 -13.51,69.9 -40.66,93.45 -27.15,23.55 -63.3,35.4 -108.45,35.4l-9.6 0 0 -88.35 14.25 0c15.75,0 28.05,-3.75 37.05,-11.25 8.85,-7.5 13.35,-17.7 13.35,-30.6 0,-11.4 -3.75,-20.85 -11.25,-28.35 -7.5,-7.36 -16.95,-11.11 -28.5,-11.11 -12.9,0 -22.95,4.35 -30.15,13.06 -7.35,8.7 -10.95,20.85 -10.95,36.45l0 238.81 -92.26 0zm303.92 0l0 -218.56c0,-48.15 12.9,-86.41 38.55,-114.91 25.65,-28.5 59.71,-42.75 102.31,-42.75 42.45,0 76.65,14.25 102.6,42.9 25.81,28.65 38.71,66.91 38.71,114.76l0 218.56 -91.81 0 0 -136.96 -82.35 0 0 -86.85 82.35 0 0 -4.35c0,-17.7 -4.5,-31.8 -13.35,-42.45 -9,-10.5 -21,-15.76 -36.15,-15.76 -16.05,0 -28.2,5.41 -36.6,16.21 -8.4,10.8 -12.6,26.4 -12.6,46.95l0 223.21 -91.66 0zm330.77 -0.45l0 -241.96c0,-40.06 12.15,-72.46 36.6,-97.21 24.3,-24.75 56.26,-37.05 95.71,-37.05 36,0 66.6,10.5 91.95,31.65 25.2,21.15 37.81,46.35 37.81,75.76 0,18.75 -5.41,35.4 -16.06,49.65 -10.65,14.25 -25.5,24.6 -44.4,30.75 23.55,2.55 40.35,9.75 50.7,21.6 10.21,11.85 15.31,30.15 15.31,55.05l0 112.21 -91.96 0 0 -89.4c0,-19.51 -4.05,-32.86 -12.3,-40.06 -8.25,-7.2 -24.3,-10.8 -47.85,-10.8l-8.55 0 0 -82.95 13.65 0c14.85,0 25.95,-3 33.6,-8.85 7.65,-5.85 11.4,-14.55 11.4,-26.1 0,-10.05 -3.15,-18.3 -9.6,-24.91 -6.45,-6.45 -14.55,-9.75 -24.3,-9.75 -12.45,0 -22.2,4.5 -29.1,13.36 -6.9,9 -10.35,21.75 -10.35,38.1l0 240.91 -92.26 0zm308.57 0.45l0 -218.56c0,-48.15 12.9,-86.41 38.55,-114.91 25.65,-28.5 59.71,-42.75 102.31,-42.75 42.45,0 76.65,14.25 102.6,42.9 25.81,28.65 38.71,66.91 38.71,114.76l0 218.56 -91.81 0 0 -136.96 -82.35 0 0 -86.85 82.35 0 0 -4.35c0,-17.7 -4.5,-31.8 -13.35,-42.45 -9,-10.5 -21,-15.76 -36.15,-15.76 -16.05,0 -28.2,5.41 -36.6,16.21 -8.4,10.8 -12.6,26.4 -12.6,46.95l0 223.21 -91.66 0zm333.92 0l0 -370.07 67.96 0c36,0 64.35,2.25 85.05,6.6 20.55,4.35 38.85,11.55 54.9,21.6 28.8,17.85 51.01,40.5 66.76,67.66 15.6,27.3 23.4,57 23.4,88.95 0,30.75 -7.2,59.4 -21.45,86.1 -14.25,26.86 -34.36,49.21 -60.16,67.36 -13.8,9.45 -29.85,16.95 -48,22.2 -18.3,5.4 -39,8.55 -62.1,9.6l0 -88.95c28.8,-1.05 52.2,-10.51 70.05,-28.51 17.85,-18 26.85,-40.8 26.85,-68.4 0,-28.05 -9.45,-51.15 -28.5,-69.45 -19.05,-18.15 -43.5,-27.31 -73.5,-27.31 -1.05,0 -2.55,0 -4.5,0.15 -1.95,0.15 -3.45,0.3 -4.5,0.3l0 282.17 -92.26 0zm340.97 0l0 -370.07 91.96 0 0 370.07 -91.96 0zm137.86 0l0 -88.35 127.36 0c7.35,0 13.2,-1.5 17.25,-4.65 4.05,-3.16 6,-7.66 6,-13.51 0,-5.1 -2.1,-10.2 -6.15,-15.3 -4.2,-5.1 -10.65,-10.35 -19.2,-15.6l-71.11 -42.9c-16.05,-10.05 -28.95,-22.95 -38.55,-38.7 -9.75,-15.75 -14.55,-31.95 -14.55,-48.75 0,-16.06 2.7,-30.76 8.25,-43.96 5.55,-13.2 13.65,-24.45 24.45,-33.75 10.2,-9 22.65,-15.3 37.5,-19.05 14.86,-3.75 38.86,-5.55 72.16,-5.55l84.45 0 0 84.75 -96.9 0c-13.35,0 -22.65,1.05 -27.75,3.15 -5.1,2.26 -7.65,5.86 -7.65,11.11 0,4.95 1.95,9.9 6,14.85 3.9,4.95 10.05,9.9 18.3,14.85l69.45 41.4c19.8,12 34.95,26.25 45.3,42.75 10.35,16.65 15.45,34.65 15.45,54.15 0,16.66 -3.45,32.26 -10.5,46.51 -7.05,14.25 -16.95,25.95 -29.55,34.8 -10.95,7.8 -23.4,13.35 -37.2,16.65 -13.8,3.45 -35.7,5.1 -65.55,5.1l-5.7 0 -101.56 0zm521.73 0l-9.6 0c-32.25,0 -60.3,-2.55 -84.45,-7.8 -24.15,-5.1 -44.4,-12.9 -61.05,-23.4 -27.01,-17.4 -47.86,-39.45 -62.56,-66.16 -14.85,-26.7 -22.2,-55.95 -22.2,-87.9 0,-31.95 7.35,-61.05 22.05,-87.6 14.55,-26.56 35.55,-48.46 62.71,-65.86 16.65,-10.5 36.9,-18.3 61.05,-23.55 24.15,-5.25 52.2,-7.8 84.45,-7.8l9.6 0 0 84.3c-2.4,-0.15 -4.95,-0.3 -7.65,-0.45 -2.7,-0.15 -6.6,-0.15 -11.55,-0.15 -32.4,0 -58.2,4.8 -77.25,14.26 -19.05,9.45 -32.85,24.15 -41.1,43.95l137.55 0 0 82.65 -139.35 0c6.15,20.25 19.5,35.55 39.9,45.75 20.25,10.36 47.7,15.46 82.05,15.46 4.65,0 8.25,0 10.8,-0.15 2.55,0 4.65,0 6.6,0l0 84.45z"/>
  <path class="fil1" d="M2057.14 2409.08l1.24 0c35.32,0 67.45,-9.2 96.49,-27.66l0 0c29.03,-18.41 51.4,-43.85 67.1,-76.23l0 0c7.55,-15.31 13.12,-32.49 16.75,-51.54l0 0c3.64,-19.02 5.47,-40.78 5.47,-65.27l0 0 0 -15.48 -193.32 0 0 82.16 90.94 0c-7.09,19.47 -17.99,34.64 -32.8,45.47l0 0c-14.82,10.87 -31.86,16.3 -51.16,16.3l0 0c-27.37,0 -50.41,-9.56 -69,-28.68l0 0c-18.59,-19.12 -27.9,-42.9 -27.9,-71.33l0 0c0,-29.11 9.63,-53.45 28.78,-73.1l0 0c19.23,-19.61 42.97,-29.45 71.23,-29.45l0 0c13.76,0 27.23,2.82 40.43,8.5l0 0c13.19,5.68 26.45,14.46 39.93,26.35l0 0 62.02 -65.65c-21.38,-19.26 -43.89,-33.69 -67.59,-43.22l0 0c-23.67,-9.59 -48.62,-14.39 -74.79,-14.39l0 0c-26.88,0 -52.21,4.83 -75.96,14.46l0 0c-23.77,9.71 -44.73,23.71 -62.79,42.16l0 0c-18.31,18.24 -32.21,38.88 -41.77,61.88l0 0c-9.41,22.6 -14.17,46.58 -14.32,71.79l0 1.2 0 1.2c0.15,25.2 4.91,49.25 14.32,72.07l0 0c9.56,23.14 23.32,43.85 41.24,62.09l0 0c18.1,18.27 38.74,32.28 61.98,41.91l0 0c22.93,9.44 47.41,14.31 73.48,14.46z"/>
  <path class="fil2" d="M2320.78 2062.97c-24.38,24.7 -36.58,57.15 -36.58,97.3l0 0 0 241.83 92.25 0 0 -240.81c0,-16.37 3.45,-29.03 10.37,-37.99l0 0c6.88,-8.96 16.58,-13.44 29.17,-13.44l0 0c9.63,0 17.71,3.28 24.17,9.8l0 0c6.42,6.57 9.66,14.82 9.66,24.8l0 0c0,11.57 -3.77,20.29 -11.35,26.11l0 0c-7.55,5.89 -18.77,8.78 -33.59,8.78l0 0 -13.69 0 0 82.94 8.54 0c23.6,0 39.48,3.64 47.77,10.87l0 0c8.25,7.23 12.38,20.6 12.38,40.07l0 0 0 89.36 92 0 0 -112.08c0,-25.01 -5.08,-43.42 -15.38,-55.24l0 0c-10.23,-11.75 -27.16,-18.98 -50.76,-21.56l0 0c18.94,-6.17 33.76,-16.44 44.45,-30.72l0 0c10.65,-14.29 16.01,-30.84 16.01,-49.6l0 0c0,-29.46 -12.63,-54.75 -37.81,-75.89l0 0c-25.26,-21.06 -55.88,-31.64 -91.9,-31.64 -39.44,0 -71.33,12.38 -95.71,37.11l0 0z"/>
  <path class="fil3" d="M2822.99 2032.6l-9.59 0 -1.51 0c-31.58,0.08 -59.23,2.65 -82.95,7.72l0 0c-24.13,5.19 -44.45,13.02 -60.99,23.53l0 0c-27.2,17.4 -48.16,39.37 -62.8,65.94l0 0c-14.64,26.49 -21.94,55.67 -21.94,87.56 0,31.85 7.34,61.13 22.05,87.84l0 0c14.75,26.7 35.63,48.75 62.69,66.15l0 0c16.54,10.54 36.86,18.37 60.99,23.53l0 0c24.1,5.18 52.25,7.72 84.46,7.72l0 0 9.59 0 0 -84.49c-1.9,0 -4.09,0.07 -6.59,0.14l0 0c-2.54,0.11 -6.07,0.14 -10.76,0.14l0 0c-34.43,0 -61.85,-5.11 -82.17,-15.38l0 0c-20.32,-10.26 -33.58,-25.54 -39.79,-45.86l0 0 139.31 0 0 -82.69 -137.47 0c8.29,-19.83 21.94,-34.47 41.06,-43.92l0 0c19.12,-9.49 44.91,-14.18 77.29,-14.18l0 0c4.98,0 8.79,0.03 11.5,0.1l0 0c2.65,0.07 5.19,0.21 7.62,0.39l0 0 0 -84.24z"/>
  <path class="fil4" d="M3099.71 2032.6l-9.56 0 -1.51 0c-31.58,0.08 -59.26,2.65 -82.98,7.72l0 0c-24.13,5.19 -44.45,13.02 -60.99,23.53l0 0c-27.2,17.4 -48.16,39.37 -62.8,65.94l0 0c-14.64,26.49 -21.94,55.67 -21.94,87.56 0,31.85 7.34,61.13 22.12,87.84l0 0c14.67,26.7 35.63,48.75 62.62,66.15l0 0c16.54,10.54 36.86,18.37 60.99,23.53l0 0c24.1,5.18 52.28,7.72 84.49,7.72l0 0 9.56 0 0 -84.49c-1.87,0 -4.09,0.07 -6.56,0.14l0 0c-2.5,0.11 -6.1,0.14 -10.76,0.14l0 0c-34.47,0 -61.84,-5.11 -82.16,-15.38l0 0c-20.36,-10.26 -33.59,-25.54 -39.79,-45.86l0 0 139.27 0 0 -82.69 -137.44 0c8.26,-19.83 21.94,-34.47 41.06,-43.92l0 0c19.12,-9.49 44.88,-14.18 77.26,-14.18l0 0c5.01,0 8.86,0.03 11.5,0.1l0 0c2.68,0.07 5.22,0.21 7.62,0.39l0 0 0 -84.24z"/>
  <path class="fil5" d="M3205.82 2024.84l-0.66 0 -0.8 0c-16.7,0.18 -30.05,6 -40.2,17.46l0 0c-10.07,11.43 -15.18,26.85 -15.34,46.21l0 0.92 0 313.16 89.18 0 0 -127.63c0,-17.75 -0.85,-36.69 -2.5,-56.94l0 0c-1.63,-20.25 -4.17,-42.72 -7.62,-67.35l0 0c6.03,17.75 17.07,41.03 33.05,69.78l0 0c3.14,5.68 5.47,9.92 7.02,12.67l0 0 72.07 130.21c9.81,17.74 18.91,29.74 27.27,35.91l0 0c8.37,6.21 18.49,9.35 30.38,9.35l0 0c13.93,0 25.15,-4.66 33.72,-13.97l0 0c8.51,-9.31 12.77,-21.45 12.77,-36.44l0 0 0 -325.58 -88.9 0 0 115.5c0,9.8 0.57,23.95 1.7,42.37l0 0c1.09,18.45 2.68,39.05 4.76,61.77l0 0c-3.42,-10.66 -8.04,-22.33 -13.83,-34.89l0 0c-5.75,-12.6 -13.72,-28.08 -23.88,-46.53l0 0 -48.58 -87.85c-12.42,-22.71 -23.67,-38.1 -33.83,-46.14l0 0c-10.04,-7.82 -21.95,-11.86 -35.78,-11.99z"/>
  <path class="fil6" d="M1875.15 2825.96l92.25 0 0 -238.76c0,-15.66 3.63,-27.87 10.87,-36.58l0 0c7.23,-8.68 17.32,-13.02 30.23,-13.02l0 0c11.54,0 21.1,3.7 28.54,11.22l0 0c7.51,7.48 11.25,16.93 11.25,28.29l0 0c0,12.91 -4.48,23.11 -13.44,30.62l0 0c-8.96,7.48 -21.27,11.26 -36.97,11.26l0 0 -14.22 0 0 88.37 9.6 0c45.12,0 81.28,-11.79 108.41,-35.39l0 0c27.13,-23.63 40.67,-54.78 40.67,-93.52l0 0c0,-36.37 -12.63,-66.99 -37.81,-91.9l0 0c-25.3,-24.9 -56.59,-37.36 -93.95,-37.36l0 0c-40.67,0 -73.38,12.74 -98.21,38.14l0 0c-24.8,25.4 -37.22,58.88 -37.22,100.4l0 238.23z"/>
  <path class="fil7" d="M2461.15 2825.96l0 -218.58c0,-47.91 -12.88,-86.15 -38.74,-114.76l0 0c-25.82,-28.61 -60,-42.9 -102.58,-42.9l0 0c-42.55,0 -76.63,14.25 -102.27,42.76l0 0c-25.72,28.54 -38.53,66.82 -38.53,114.9l0 0 0 218.58 91.72 0 0 -223.24c0,-20.49 4.2,-36.16 12.53,-46.92l0 0c8.36,-10.76 20.57,-16.12 36.55,-16.12l0 0c15.2,0 27.27,5.22 36.19,15.73l0 0c8.96,10.52 13.44,24.63 13.44,42.37l0 0 0 4.41 -82.44 0 0 86.82 82.44 0 0 136.95 91.69 0z"/>
  <path class="fil8" d="M2685.48 2825.96l91.97 0 0 -112.15 0 -1.17c-0.16,-24.37 -5.24,-42.36 -15.35,-54l0 0c-10.23,-11.82 -27.2,-18.98 -50.8,-21.59l0 0c18.98,-6.18 33.76,-16.41 44.45,-30.73l0 0c10.69,-14.29 16.02,-30.83 16.02,-49.6l0 0c0,-29.46 -12.59,-54.75 -37.82,-75.85l0 0c-25.22,-21.09 -55.88,-31.68 -91.86,-31.68l0 0c-39.44,0 -71.37,12.39 -95.74,37.12l0 0c-24.35,24.69 -36.59,57.15 -36.59,97.26l0 0 0 241.86 92.29 0 0 -240.81c0,-16.36 3.46,-29.03 10.34,-37.99l0 0c6.87,-8.96 16.61,-13.44 29.17,-13.44l0 0c9.67,0 17.71,3.28 24.2,9.81l0 0c6.42,6.56 9.67,14.81 9.67,24.8l0 0c0,11.57 -3.81,20.25 -11.4,26.14l0 0c-7.55,5.82 -18.77,8.78 -33.58,8.78l0 0 -13.69 0 0 82.91 8.54 0c23.6,0 39.51,3.63 47.8,10.86l0 0c8.25,7.23 12.38,20.6 12.38,40.08l0 0 0 89.39z"/>
  <path class="fil9" d="M3100.49 2825.96l0 -218.58c0,-47.91 -12.95,-86.15 -38.77,-114.76l0 0c-25.83,-28.61 -60.01,-42.9 -102.55,-42.9l0 0c-42.55,0 -76.66,14.25 -102.35,42.76l0 0c-25.68,28.54 -38.52,66.82 -38.52,114.9l0 0 0 218.58 91.76 0 0 -223.24c0,-20.49 4.16,-36.16 12.52,-46.92l0 0c8.36,-10.76 20.57,-16.12 36.59,-16.12l0 0c15.17,0 27.19,5.22 36.16,15.73l0 0c8.99,10.52 13.44,24.63 13.44,42.37l0 0 0 4.41 -82.45 0 0 86.82 82.45 0 0 136.95 91.72 0z"/>
  <path class="fil10" d="M3152.17 2825.96l92.22 0 0 -282.15c1.05,0 2.54,-0.11 4.55,-0.28l0 0c1.94,-0.18 3.45,-0.25 4.51,-0.25l0 0c29.99,0 54.47,9.14 73.49,27.37l0 0c19.05,18.28 28.57,41.46 28.57,69.5l0 0c0,27.55 -8.92,50.38 -26.88,68.37l0 0c-17.89,17.99 -41.24,27.52 -69.99,28.54l0 0 0 88.9c23.07,-1.06 43.74,-4.23 61.98,-9.6l0 0c18.28,-5.29 34.26,-12.7 48.05,-22.22l0 0c25.86,-18.06 45.93,-40.5 60.22,-67.28l0 0c14.29,-26.81 21.48,-55.52 21.48,-86.18l0 0c0,-32.07 -7.86,-61.66 -23.53,-88.86l0 0c-15.7,-27.24 -37.92,-49.82 -66.67,-67.7l0 0c-16.02,-10.02 -34.4,-17.22 -55.07,-21.59l0 0c-20.67,-4.41 -49,-6.6 -84.95,-6.6l0 0 -67.98 0 0 370.03z"/>
  <polygon class="fil11" points="3585.24,2825.96 3585.24,2455.9 3493.27,2455.9 3493.27,2825.96 "/>
  <path class="fil12" d="M3630.96 2825.96l101.57 0 5.67 0 1.4 0 1.39 0c28.56,-0.1 49.5,-1.79 62.83,-5.04l0 0c13.8,-3.39 26.18,-8.93 37.22,-16.69l0 0c12.59,-8.93 22.4,-20.57 29.46,-34.89l0 0c7.05,-14.29 10.58,-29.81 10.58,-46.5l0 0c0,-19.47 -5.19,-37.43 -15.52,-53.97l0 0c-10.3,-16.55 -25.37,-30.83 -45.19,-42.9l0 0 -69.54 -41.35c-8.25,-4.97 -14.32,-9.98 -18.3,-14.88l0 0c-3.99,-4.91 -5.97,-9.85 -5.97,-14.85l0 0c0,-5.16 2.54,-8.79 7.62,-11.01l0 0c5.08,-2.12 14.36,-3.18 27.77,-3.18l0 0 96.9 0 0 -84.77 -84.49 0c-33.23,0 -57.25,1.87 -72.1,5.58l0 0c-14.82,3.66 -27.27,10.01 -37.43,18.97l0 0c-10.87,9.32 -19.05,20.54 -24.56,33.73l0 0c-5.53,13.12 -8.25,27.87 -8.25,44.06l0 0c0,16.72 4.76,32.92 14.43,48.69l0 0c9.66,15.76 22.58,28.64 38.77,38.62l0 0 71.05 42.9c8.64,5.36 14.99,10.55 19.15,15.67l0 0c4.13,5.04 6.18,10.19 6.18,15.34l0 0c0,5.86 -2.01,10.34 -6.07,13.44l0 0c-4.06,3.11 -9.77,4.66 -17.15,4.66l0 0 -127.42 0 0 88.37z"/>
  <path class="fil13" d="M4141.61 2825.96l1.51 0 9.56 0 0 -84.53c-1.87,0 -4.09,0.08 -6.59,0.15l0 0c-2.51,0.1 -6.07,0.14 -10.76,0.14l0 0c-34.43,0 -61.81,-5.15 -82.13,-15.35l0 0c-20.36,-10.3 -33.58,-25.58 -39.83,-45.9l0 0 139.31 0 0 -82.69 -137.44 0c8.26,-19.82 21.91,-34.46 41.03,-43.92l0 0c19.12,-9.49 44.91,-14.18 77.29,-14.18l0 0c4.98,0 8.82,0.04 11.5,0.07l0 0c2.65,0.11 5.19,0.28 7.62,0.42l0 0 0 -84.24 -9.56 0c-32.24,0 -60.36,2.54 -84.49,7.73l0 0c-24.13,5.18 -44.45,13.01 -60.99,23.53l0 0c-27.2,17.39 -48.12,39.4 -62.8,65.9l0 0c-14.64,26.56 -21.94,55.74 -21.94,87.59 0,31.86 7.34,61.14 22.08,87.84l0 0c14.72,26.71 35.63,48.76 62.66,66.15l0 0c16.54,10.55 36.86,18.38 60.99,23.53l0 0c23.75,5.07 51.37,7.68 82.98,7.76z"/>
  <path class="fil14 str0" d="M2135.75 2040.22c-23.67,-9.56 -48.62,-14.36 -74.79,-14.36 -26.88,0 -52.21,4.8 -75.96,14.46 -23.77,9.67 -44.73,23.71 -62.82,42.13 -18.24,18.27 -32.18,38.91 -41.7,61.87 -9.6,23.04 -14.36,47.35 -14.36,73.03 0,25.64 4.76,50.06 14.36,73.27 9.52,23.14 23.28,43.85 41.2,62.09 18.06,18.27 38.74,32.24 61.98,41.87 23.29,9.63 48.19,14.5 74.72,14.5 35.32,0 67.49,-9.24 96.49,-27.66 29.03,-18.45 51.4,-43.85 67.06,-76.23 7.59,-15.35 13.16,-32.49 16.79,-51.54 3.6,-19.02 5.44,-40.78 5.44,-65.27l0 -15.48 -193.29 0 0 82.16 90.94 0c-7.05,19.47 -17.99,34.61 -32.8,45.47 -14.82,10.87 -31.86,16.3 -51.16,16.3 -27.37,0 -50.41,-9.59 -69,-28.71 -18.59,-19.13 -27.9,-42.87 -27.9,-71.3 0,-29.11 9.59,-53.48 28.78,-73.1 19.23,-19.65 42.97,-29.45 71.23,-29.45 13.79,0 27.23,2.82 40.43,8.5 13.15,5.68 26.45,14.46 39.9,26.35l62.05 -65.62c-21.38,-19.29 -43.89,-33.72 -67.59,-43.28z"/>
  <path class="fil14 str0" d="M2376.46 2402.09l0 -240.81c0,-16.36 3.46,-29.03 10.33,-37.99 6.88,-8.96 16.62,-13.44 29.18,-13.44 9.67,0 17.71,3.28 24.2,9.81 6.42,6.56 9.67,14.81 9.67,24.8 0,11.53 -3.78,20.25 -11.36,26.14 -7.59,5.85 -18.77,8.78 -33.59,8.78l-13.72 0 0 82.9 8.54 0c23.6,0 39.51,3.64 47.8,10.87 8.25,7.23 12.38,20.6 12.38,40.04l0 89.43 92 0 0 -112.15c0,-24.98 -5.11,-43.39 -15.38,-55.21 -10.23,-11.75 -27.16,-18.98 -50.76,-21.55 18.94,-6.21 33.76,-16.44 44.41,-30.73 10.69,-14.29 16.05,-30.83 16.05,-49.6 0,-29.46 -12.62,-54.75 -37.85,-75.88 -25.26,-21.06 -55.88,-31.65 -91.86,-31.65 -39.44,0 -71.37,12.39 -95.75,37.12 -24.37,24.69 -36.54,57.15 -36.54,97.29l0 241.83 92.25 0z"/>
  <path class="fil14 str0" d="M2822.98 2318.1c-1.91,0 -4.1,0.07 -6.6,0.14 -2.51,0.11 -6.07,0.14 -10.73,0.14 -34.46,0 -61.84,-5.15 -82.16,-15.38 -20.32,-10.26 -33.58,-25.54 -39.79,-45.89l139.28 0 0 -82.66 -137.45 0c8.26,-19.83 21.95,-34.47 41.07,-43.92 19.12,-9.49 44.87,-14.22 77.26,-14.22 5,0 8.81,0.04 11.5,0.11 2.64,0.1 5.22,0.24 7.62,0.42l0 -84.28 -9.56 0c-32.25,0 -60.36,2.58 -84.49,7.76 -24.13,5.15 -44.45,13.02 -61,23.53 -27.2,17.4 -48.15,39.37 -62.79,65.9 -14.64,26.53 -21.95,55.71 -21.95,87.6 0,31.85 7.34,61.13 22.09,87.84 14.71,26.7 35.63,48.75 62.65,66.15 16.55,10.54 36.87,18.34 61,23.53 24.13,5.15 52.24,7.76 84.49,7.76l9.56 0 0 -84.53z"/>
  <path class="fil14 str0" d="M3099.72 2318.1c-1.91,0 -4.09,0.07 -6.6,0.14 -2.5,0.11 -6.07,0.14 -10.72,0.14 -34.47,0 -61.84,-5.15 -82.16,-15.38 -20.32,-10.26 -33.59,-25.54 -39.8,-45.89l139.28 0 0 -82.66 -137.44 0c8.25,-19.83 21.94,-34.47 41.06,-43.92 19.12,-9.49 44.87,-14.22 77.26,-14.22 5.01,0 8.82,0.04 11.5,0.11 2.65,0.1 5.22,0.24 7.62,0.42l0 -84.28 -9.56 0c-32.24,0 -60.36,2.58 -84.49,7.76 -24.13,5.15 -44.45,13.02 -61,23.53 -27.2,17.4 -48.15,39.37 -62.79,65.9 -14.64,26.53 -21.94,55.71 -21.94,87.6 0,31.85 7.33,61.13 22.08,87.84 14.71,26.7 35.63,48.75 62.65,66.15 16.55,10.54 36.87,18.34 61,23.53 24.13,5.15 52.25,7.76 84.49,7.76l9.56 0 0 -84.53z"/>
  <path class="fil14 str0" d="M3237.97 2402.61l0 -127.64c0,-17.74 -0.81,-36.72 -2.47,-56.97 -1.62,-20.28 -4.16,-42.69 -7.62,-67.34 6.04,17.74 17.04,41.02 33.06,69.77 3.1,5.68 5.47,9.92 7.02,12.67l72.07 130.24c9.81,17.75 18.91,29.71 27.27,35.88 8.33,6.25 18.45,9.35 30.34,9.35 13.97,0 25.19,-4.66 33.73,-14 8.53,-9.28 12.8,-21.42 12.8,-36.41l0 -325.58 -88.9 0 0 115.5c0,9.81 0.57,23.95 1.69,42.37 1.1,18.45 2.69,39.05 4.77,61.77 -3.46,-10.65 -8.05,-22.33 -13.83,-34.89 -5.75,-12.56 -13.72,-28.08 -23.92,-46.5l-48.54 -87.87c-12.42,-22.72 -23.67,-38.1 -33.83,-46.11 -10.2,-8.01 -22.33,-12.03 -36.48,-12.03 -17.04,0 -30.69,5.82 -40.96,17.46 -10.23,11.61 -15.34,27.38 -15.34,47.13l0 313.2 89.14 0z"/>
  <path class="fil14 str0" d="M1967.42 2825.94l0 -238.76c0,-15.66 3.63,-27.87 10.86,-36.58 7.24,-8.68 17.29,-13.02 30.2,-13.02 11.54,0 21.1,3.74 28.58,11.26 7.51,7.44 11.22,16.89 11.22,28.25 0,12.95 -4.48,23.15 -13.45,30.62 -8.96,7.48 -21.23,11.26 -36.93,11.26l-14.22 0 0 88.37 9.56 0c45.16,0 81.28,-11.78 108.41,-35.39 27.13,-23.6 40.68,-54.78 40.68,-93.55 0,-36.34 -12.6,-66.96 -37.82,-91.87 -25.26,-24.87 -56.59,-37.35 -93.95,-37.35 -40.67,0 -73.37,12.73 -98.21,38.13 -24.8,25.4 -37.18,58.88 -37.18,100.4l0 238.23 92.25 0z"/>
  <path class="fil14 str0" d="M2270.76 2825.94l0 -223.24c0,-20.49 4.16,-36.16 12.49,-46.91 8.4,-10.76 20.57,-16.13 36.62,-16.13 15.13,0 27.2,5.22 36.16,15.74 8.96,10.51 13.44,24.62 13.44,42.37l0 4.41 -82.44 0 0 86.81 82.44 0 0 136.95 91.69 0 0 -218.58c0,-47.91 -12.92,-86.15 -38.74,-114.76 -25.86,-28.61 -60.01,-42.9 -102.55,-42.9 -42.55,0 -76.66,14.26 -102.34,42.8 -25.68,28.47 -38.53,66.78 -38.53,114.86l0 218.58 91.76 0z"/>
  <path class="fil14 str0" d="M2602.04 2825.42l0 -240.8c0,-16.37 3.46,-29.04 10.34,-38 6.88,-8.96 16.61,-13.44 29.17,-13.44 9.67,0 17.71,3.28 24.2,9.81 6.42,6.56 9.67,14.82 9.67,24.8 0,11.54 -3.78,20.25 -11.36,26.14 -7.58,5.86 -18.77,8.79 -33.58,8.79l-13.73 0 0 82.9 8.54 0c23.6,0 39.51,3.63 47.8,10.86 8.26,7.24 12.38,20.61 12.38,40.04l0 89.43 92.01 0 0 -112.15c0,-24.97 -5.12,-43.39 -15.38,-55.2 -10.23,-11.75 -27.17,-18.98 -50.77,-21.56 18.95,-6.21 33.76,-16.44 44.42,-30.73 10.69,-14.28 16.05,-30.83 16.05,-49.6 0,-29.45 -12.63,-54.75 -37.85,-75.88 -25.26,-21.06 -55.88,-31.64 -91.87,-31.64 -39.44,0 -71.37,12.38 -95.74,37.11 -24.38,24.69 -36.55,57.15 -36.55,97.29l0 241.83 92.25 0z"/>
  <path class="fil14 str0" d="M2910.07 2825.94l0 -223.24c0,-20.49 4.16,-36.16 12.48,-46.91 8.4,-10.76 20.57,-16.13 36.62,-16.13 15.14,0 27.2,5.22 36.16,15.74 8.96,10.51 13.44,24.62 13.44,42.37l0 4.41 -82.44 0 0 86.81 82.44 0 0 136.95 91.69 0 0 -218.58c0,-47.91 -12.91,-86.15 -38.73,-114.76 -25.86,-28.61 -60.01,-42.9 -102.56,-42.9 -42.54,0 -76.66,14.26 -102.34,42.8 -25.68,28.47 -38.52,66.78 -38.52,114.86l0 218.58 91.76 0z"/>
  <path class="fil14 str0" d="M3244.41 2825.94l0 -282.15c1.03,0 2.51,-0.11 4.52,-0.28 1.98,-0.18 3.49,-0.25 4.52,-0.25 29.95,0 54.5,9.14 73.51,27.41 19.05,18.24 28.54,41.42 28.54,69.46 0,27.59 -8.92,50.38 -26.84,68.37 -17.92,18.03 -41.28,27.52 -70.06,28.54l0 88.9c23.1,-1.02 43.78,-4.2 62.01,-9.56 18.28,-5.32 34.29,-12.73 48.05,-22.22 25.86,-18.1 45.93,-40.54 60.22,-67.31 14.32,-26.78 21.49,-55.53 21.49,-86.19 0,-32.03 -7.87,-61.66 -23.53,-88.86 -15.67,-27.24 -37.89,-49.81 -66.68,-67.7 -16.02,-10.02 -34.36,-17.21 -55.03,-21.59 -20.68,-4.41 -49,-6.6 -84.99,-6.6l-67.98 0 0 370.03 92.25 0z"/>
  <polygon class="fil14 str0" points="3585.24,2455.9 3493.27,2455.9 3493.27,2825.92 3585.24,2825.92 "/>
  <path class="fil14 str0" d="M3732.51 2825.94l5.68 0c29.99,0 51.86,-1.69 65.62,-5.04 13.79,-3.35 26.21,-8.93 37.22,-16.65 12.59,-8.96 22.4,-20.57 29.46,-34.89 7.05,-14.33 10.58,-29.81 10.58,-46.53 0,-19.48 -5.19,-37.43 -15.52,-53.98 -10.3,-16.54 -25.37,-30.83 -45.19,-42.9l-69.5 -41.34c-8.29,-4.98 -14.39,-9.95 -18.35,-14.89 -3.95,-4.87 -5.96,-9.84 -5.96,-14.85 0,-5.15 2.54,-8.82 7.62,-10.97 5.08,-2.16 14.36,-3.21 27.8,-3.21l96.87 0 0 -84.78 -84.45 0c-33.27,0 -57.29,1.84 -72.11,5.58 -14.82,3.67 -27.3,10.02 -37.46,18.98 -10.87,9.31 -19.05,20.53 -24.56,33.72 -5.5,13.16 -8.29,27.87 -8.29,44.06 0,16.73 4.84,32.95 14.5,48.69 9.63,15.77 22.54,28.64 38.74,38.66l71.08 42.9c8.61,5.33 14.99,10.51 19.12,15.63 4.13,5.04 6.21,10.19 6.21,15.34 0,5.86 -2.05,10.34 -6.07,13.44 -4.09,3.11 -9.8,4.66 -17.21,4.66l-127.39 0 0 88.37 101.56 0z"/>
  <path class="fil14 str0" d="M4152.68 2741.43c-1.91,0 -4.09,0.07 -6.6,0.15 -2.5,0.1 -6.06,0.14 -10.72,0.14 -34.47,0 -61.84,-5.15 -82.16,-15.38 -20.32,-10.27 -33.59,-25.55 -39.8,-45.9l139.28 0 0 -82.66 -137.44 0c8.25,-19.82 21.94,-34.46 41.06,-43.92 19.12,-9.49 44.87,-14.21 77.26,-14.21 5.01,0 8.82,0.03 11.5,0.1 2.65,0.11 5.22,0.25 7.62,0.42l0 -84.27 -9.56 0c-32.24,0 -60.36,2.57 -84.49,7.76 -24.13,5.15 -44.45,13.01 -61,23.53 -27.2,17.39 -48.15,39.37 -62.79,65.9 -14.64,26.53 -21.94,55.7 -21.94,87.59 0,31.86 7.33,61.14 22.08,87.84 14.71,26.71 35.63,48.76 62.65,66.15 16.55,10.55 36.87,18.34 61,23.53 24.13,5.15 52.25,7.76 84.49,7.76l9.56 0 0 -84.53z"/>
  <g style="clip-path:url(#id0)">
   <image x="677.84" y="1753.11" width="1220.54" height="1231.95" xlink:href="logo3_Images\logo3_ImgID1.png"/>
  </g>
 </g>
</svg>
