<?xml version="1.0" encoding="UTF-8"?>
<!DOCTYPE svg PUBLIC "-//W3C//DTD SVG 1.1//EN" "http://www.w3.org/Graphics/SVG/1.1/DTD/svg11.dtd">
<!-- Creator: CorelDRAW 2020 (64-Bit) -->
<svg xmlns="http://www.w3.org/2000/svg" xml:space="preserve" width="49.7416mm" height="49.7416mm" version="1.1" style="shape-rendering:geometricPrecision; text-rendering:geometricPrecision; image-rendering:optimizeQuality; fill-rule:evenodd; clip-rule:evenodd"
viewBox="0 0 4974.16 4974.16"
 xmlns:xlink="http://www.w3.org/1999/xlink"
 xmlns:xodm="http://www.corel.com/coreldraw/odm/2003">
 <defs>
  <style type="text/css">
   <![CDATA[
    .str0 {stroke:black;stroke-width:7.62;stroke-miterlimit:10}
    .fil16 {fill:none;fill-rule:nonzero}
    .fil0 {fill:#37B34A;fill-rule:nonzero}
    .fil1 {fill:#8BC541;fill-rule:nonzero}
    .fil2 {fill:black;fill-rule:nonzero}
    .fil6 {fill:url(#id0)}
    .fil9 {fill:url(#id1)}
    .fil11 {fill:url(#id2)}
    .fil7 {fill:url(#id3)}
    .fil12 {fill:url(#id4)}
    .fil15 {fill:url(#id5)}
    .fil10 {fill:url(#id6)}
    .fil8 {fill:url(#id7)}
    .fil13 {fill:url(#id8)}
    .fil14 {fill:url(#id9)}
    .fil5 {fill:url(#id10)}
    .fil3 {fill:url(#id11)}
    .fil4 {fill:url(#id12)}
   ]]>
  </style>
  <radialGradient id="id0" gradientUnits="userSpaceOnUse" gradientTransform="matrix(4.00033 -0 -0 -4.00044 -8850 12167)" cx="2949.54" cy="2433.18" r="178.9" fx="2949.54" fy="2433.18">
   <stop offset="0" style="stop-opacity:1; stop-color:#00ADEE"/>
   <stop offset="0.960784" style="stop-opacity:1; stop-color:#8BC53F"/>
   <stop offset="1" style="stop-opacity:1; stop-color:#8BC53F"/>
  </radialGradient>
  <radialGradient id="id1" gradientUnits="userSpaceOnUse" gradientTransform="matrix(4.00026 -0 -0 -4.0001 -8853 12166)" xlink:href="#id0" cx="2950.59" cy="2433.12" r="178.91" fx="2950.59" fy="2433.12">
  </radialGradient>
  <radialGradient id="id2" gradientUnits="userSpaceOnUse" gradientTransform="matrix(4.00026 -0 -0 -4.0001 -8846 12166)" xlink:href="#id0" cx="2948.5" cy="2433.12" r="178.91" fx="2948.5" fy="2433.12">
  </radialGradient>
  <radialGradient id="id3" gradientUnits="userSpaceOnUse" gradientTransform="matrix(4.0005 -0 -0 -4.00044 -8847 12167)" xlink:href="#id0" cx="2948.44" cy="2433.18" r="178.9" fx="2948.44" fy="2433.18">
  </radialGradient>
  <radialGradient id="id4" gradientUnits="userSpaceOnUse" gradientTransform="matrix(4.00028 -0 -0 -4.0001 -8847 12166)" xlink:href="#id0" cx="2948.7" cy="2433.12" r="178.91" fx="2948.7" fy="2433.12">
  </radialGradient>
  <radialGradient id="id5" gradientUnits="userSpaceOnUse" gradientTransform="matrix(5.26335 -0 -0 -5.26335 -12572 15239)" xlink:href="#id0" cx="2948.89" cy="2433.12" r="135.97" fx="2948.89" fy="2433.12">
  </radialGradient>
  <radialGradient id="id6" gradientUnits="userSpaceOnUse" gradientTransform="matrix(4.0001 -0 -0 -4.0001 -8846 12166)" xlink:href="#id0" cx="2948.53" cy="2433.12" r="178.91" fx="2948.53" fy="2433.12">
  </radialGradient>
  <radialGradient id="id7" gradientUnits="userSpaceOnUse" gradientTransform="matrix(5.12857 -0 -0 -5.12833 -12179 14911)" xlink:href="#id0" cx="2949.84" cy="2433.12" r="139.55" fx="2949.84" fy="2433.12">
  </radialGradient>
  <radialGradient id="id8" gradientUnits="userSpaceOnUse" gradientTransform="matrix(4.00066 -0 -0 -4.0001 -8850 12166)" xlink:href="#id0" cx="2949.44" cy="2433.12" r="178.91" fx="2949.44" fy="2433.12">
  </radialGradient>
  <radialGradient id="id9" gradientUnits="userSpaceOnUse" gradientTransform="matrix(3.91049 -0 -0 -3.91059 -8586 11942)" xlink:href="#id0" cx="2949.96" cy="2431.93" r="183.01" fx="2949.96" fy="2431.93">
  </radialGradient>
  <radialGradient id="id10" gradientUnits="userSpaceOnUse" gradientTransform="matrix(4.00053 -0 -0 -4.00044 -8852 12167)" xlink:href="#id0" cx="2950.17" cy="2433.18" r="178.9" fx="2950.17" fy="2433.18">
  </radialGradient>
  <radialGradient id="id11" gradientUnits="userSpaceOnUse" gradientTransform="matrix(5.14529 -0 -0 -5.14543 -12228 14960)" xlink:href="#id0" cx="2949.84" cy="2434.39" r="139.09" fx="2949.84" fy="2434.39">
  </radialGradient>
  <radialGradient id="id12" gradientUnits="userSpaceOnUse" gradientTransform="matrix(4.00033 -0 -0 -4.00044 -8847 12167)" xlink:href="#id0" cx="2948.84" cy="2433.18" r="178.9" fx="2948.84" fy="2433.18">
  </radialGradient>
 </defs>
 <g id="Layer_x0020_1">
  <metadata id="CorelCorpID_0Corel-Layer"/>
  <path class="fil0" d="M1183.04 2105.72c47.06,113.07 151.83,188.03 297.99,235.59 359.69,95.88 380.78,329.21 259.75,559.78l-7.55 0 0 -252.97 58.38 0 -222 -197.59 -220.49 197.34 59.9 0 0 85.06c-67.23,-61.92 -126.11,-124.85 -173.14,-189.27 172.83,363.5 567.83,528.57 1120.53,321.66 -214.74,108.38 -441.57,139.77 -679.56,99.66 -431.9,80.05 -729.44,-149.47 -493.81,-859.26z"/>
  <path class="fil0" d="M1521.31 2805.42l0 -102.16 93.59 0 0 154.02c-32.95,-9.6 -63.78,-28.54 -93.59,-51.86z"/>
  <path class="fil0" d="M1605.06 2580.69c0,20.43 -16.55,36.98 -36.94,36.98 -20.42,0 -36.97,-16.55 -36.97,-36.98 0,-20.39 16.55,-36.97 36.97,-36.97 20.39,0 36.94,16.58 36.94,36.97z"/>
  <path class="fil1" d="M1486.55 2303.54c44.62,-181.96 232.27,-292.42 382.87,-305.01 -155.54,148.2 -68.37,335.63 47.52,527.75 60.46,146.58 18.76,266.49 -132.12,357.93 90.59,-203.87 97.69,-457.27 -298.27,-580.67z"/>
  <path class="fil2" d="M2130.48 2201.62l100.13 0 0 113.45c0,28.98 -9.04,51.15 -26.92,66.65 -17.89,15.5 -44.44,23.33 -79.66,23.33 -35.23,0 -61.78,-7.83 -79.67,-23.33 -18.08,-15.5 -27.11,-37.67 -27.11,-66.65l0 -186.04c0,-28.98 9.03,-51.29 27.11,-66.8 17.89,-15.5 44.44,-23.18 79.67,-23.18 35.22,0 61.77,7.68 79.66,23.18 17.88,15.51 26.92,37.82 26.92,66.8l0 34.77 -67.49 0 0 -38.25c0,-13.04 -3.33,-22.17 -10.15,-27.53 -6.82,-5.22 -15.67,-7.82 -26.92,-7.82 -11.25,0 -20.28,2.6 -27.11,7.82 -6.82,5.36 -10.14,14.49 -10.14,27.53l0 193.14c0,12.9 3.32,22.02 10.14,27.1 6.83,5.07 15.86,7.68 27.11,7.68 11.25,0 20.1,-2.61 26.92,-7.68 6.82,-5.08 10.15,-14.2 10.15,-27.1l0 -65.92 -32.64 0 0 -51.15zm296.16 199.37c-0.92,-2.46 -1.85,-4.64 -2.77,-6.67 -0.93,-2.02 -1.66,-4.63 -2.21,-7.67 -0.55,-3.05 -1.11,-6.96 -1.29,-11.74 -0.19,-4.78 -0.37,-10.72 -0.37,-17.82l0 -56.22c0,-16.66 -3.69,-28.54 -11.07,-35.35 -7.37,-6.81 -19.36,-10.15 -35.78,-10.15l-24.7 0 0 145.62 -71.55 0 0 -357.74 108.07 0c37.24,0 64.17,6.81 80.94,20.43 16.79,13.62 25.09,34.2 25.09,61.87l0 28.11c0,36.8 -15.68,61 -46.84,72.45 18.25,5.79 30.61,15.21 37.43,28.39 6.65,13.19 9.95,29.13 9.95,47.82l0 55.2c0,8.84 0.37,16.66 1.3,23.19 0.92,6.66 3.13,13.47 6.63,20.28l-72.83 0zm-78.19 -306.74l0 109.98 28.03 0c13.46,0 23.98,-2.76 31.54,-8.26 7.56,-5.36 11.42,-15.22 11.42,-29.56l0 -35.35c0,-12.9 -2.95,-22.32 -8.84,-28.11 -5.91,-5.8 -15.12,-8.7 -27.67,-8.7l-34.48 0zm261.5 99.69l98.29 0 0 51.15 -98.29 0 0 104.75 123.55 0 0 51.15 -195.11 0 0 -357.74 195.11 0 0 51 -123.55 0 0 99.69zm239.36 0l98.29 0 0 51.15 -98.29 0 0 104.75 123.56 0 0 51.15 -195.11 0 0 -357.74 195.11 0 0 51 -123.56 0 0 99.69zm231.61 -52.16l0 259.21 -64.35 0 0 -357.74 89.62 0 73.57 214.15 0 -214.15 63.82 0 0 357.74 -73.58 0 -89.08 -259.21z"/>
  <path class="fil2" d="M2128.64 2465.46c35.95,0 62.69,7.54 80.22,22.46 17.51,14.92 26.37,36.95 26.37,65.93l0 46.51c0,28.97 -8.86,51 -26.37,65.92 -17.53,14.93 -44.27,22.46 -80.22,22.46l-33.93 0 0 134.46 -71.56 0 0 -357.74 105.49 0zm-33.93 51l0 121.13 33.93 0c11.25,0 19.92,-2.31 26,-7.1 6.08,-4.78 9.04,-13.62 9.04,-26.51l0 -53.76c0,-12.89 -2.96,-21.88 -9.04,-26.66 -6.08,-4.78 -14.75,-7.1 -26,-7.1l-33.93 0zm400.18 306.74l-72.28 0 -12.35 -64.91 -87.79 0 -12.35 64.91 -65.65 0 72.84 -357.74 104.74 0 72.84 357.74zm-163.2 -113.45l68.79 0 -34.3 -180.97 -34.49 180.97zm346.13 113.45c-0.91,-2.46 -1.84,-4.64 -2.76,-6.67 -0.93,-2.02 -1.67,-4.63 -2.21,-7.67 -0.55,-3.05 -1.11,-6.96 -1.29,-11.74 -0.19,-4.78 -0.37,-10.72 -0.37,-17.82l0 -56.22c0,-16.66 -3.69,-28.54 -11.07,-35.35 -7.37,-6.81 -19.36,-10.15 -35.78,-10.15l-24.7 0 0 145.62 -71.56 0 0 -357.74 108.07 0c37.24,0 64.17,6.81 80.95,20.43 16.79,13.62 25.08,34.2 25.08,61.87l0 28.11c0,36.8 -15.68,61 -46.83,72.45 18.25,5.79 30.61,15.21 37.43,28.39 6.64,13.19 9.95,29.13 9.95,47.82l0 55.2c0,8.84 0.37,16.66 1.3,23.19 0.92,6.66 3.13,13.47 6.63,20.28l-72.84 0zm-78.18 -306.74l0 109.98 28.02 0c13.47,0 23.98,-2.76 31.54,-8.26 7.56,-5.36 11.43,-15.22 11.43,-29.56l0 -35.35c0,-12.9 -2.95,-22.32 -8.84,-28.11 -5.91,-5.8 -15.12,-8.7 -27.67,-8.7l-34.48 0zm421.55 306.74l-72.28 0 -12.35 -64.91 -87.78 0 -12.36 64.91 -65.65 0 72.84 -357.74 104.74 0 72.84 357.74zm-163.2 -113.45l68.79 0 -34.3 -180.97 -34.49 180.97zm196.4 -244.29l113.22 0c35.97,0 62.88,7.54 80.41,22.46 17.51,14.92 26.37,36.95 26.37,65.93l0 180.97c0,28.97 -8.86,51 -26.37,65.92 -17.53,14.93 -44.44,22.46 -80.41,22.46l-113.22 0 0 -357.74zm71.55 51l0 255.59 40.38 0c11.25,0 20.29,-2.6 26.74,-7.68 6.46,-5.07 9.59,-14.2 9.59,-27.09l0 -186.04c0,-12.9 -3.13,-22.03 -9.59,-27.1 -6.45,-5.07 -15.49,-7.68 -26.74,-7.68l-40.38 0zm193.81 -51l71.55 0 0 357.74 -71.55 0 0 -357.74zm114.52 85.78c0,-28.98 8.85,-51.29 26.37,-66.8 17.52,-15.5 43.71,-23.18 78.92,-23.18 35.23,0 61.61,7.68 79.12,23.18 17.52,15.51 26.37,37.82 26.37,66.8l0 11.3 -67.67 0 0 -14.78c0,-13.04 -3.15,-22.17 -9.41,-27.53 -6.27,-5.22 -15.12,-7.82 -26.37,-7.82 -11.25,0 -20.11,2.6 -26.37,7.82 -6.27,5.36 -9.41,14.49 -9.41,27.53 0,12.32 3.5,23.04 10.52,32.46 6.82,9.41 15.49,18.25 26,26.51 10.32,8.26 21.38,16.66 33.37,24.92 11.99,8.41 23.05,17.53 33.56,27.39 10.34,9.99 19,21.15 26,33.76 6.83,12.6 10.34,27.53 10.34,44.48 0,28.98 -9.04,51.15 -26.93,66.65 -18.07,15.5 -44.62,23.33 -79.66,23.33 -35.23,0 -61.78,-7.83 -79.66,-23.33 -18.08,-15.5 -27.11,-37.67 -27.11,-66.65l0 -21.88 67.67 0 0 25.5c0,12.9 3.32,22.02 10.14,27.1 6.65,5.07 15.68,7.68 26.92,7.68 11.25,0 20.29,-2.61 27.11,-7.68 6.64,-5.08 9.97,-14.2 9.97,-27.1 0,-12.31 -3.5,-23.04 -10.34,-32.45 -7,-9.42 -15.67,-18.26 -26,-26.66 -10.5,-8.26 -21.57,-16.67 -33.56,-25.07 -11.98,-8.26 -23.05,-17.39 -33.37,-27.24 -10.52,-9.85 -19.18,-21.15 -26.01,-33.76 -7.01,-12.61 -10.51,-27.39 -10.51,-44.48zm323.82 64.91l98.3 0 0 51.15 -98.3 0 0 104.75 123.56 0 0 51.15 -195.11 0 0 -357.74 195.11 0 0 51 -123.56 0 0 99.69z"/>
  <path class="fil3" d="M2230.68 2315.1l0 -113.45 -100.15 0 0 51.08 32.49 0 0 65.97c0,12.95 -3.32,21.98 -10.06,27.09l0 0c-6.77,5.12 -15.73,7.66 -27.02,7.66l0 0c-11.25,0 -20.29,-2.54 -26.99,-7.66l0 0c-6.74,-5.11 -10.05,-14.14 -10.05,-27.09l0 0 0 -193.22c0,-12.94 3.31,-22.01 10.05,-27.34l0 0c6.7,-5.25 15.74,-7.93 26.99,-7.93l0 0c11.29,0 20.25,2.68 27.02,7.93l0 0c6.74,5.33 10.06,14.4 10.06,27.34l0 0 0 38.35 67.66 0 0 -34.75c0,-29 -8.96,-51.19 -27.02,-66.74l0 0c-17.96,-15.45 -44.52,-23.25 -79.66,-23.25 -35.1,0 -61.7,7.8 -79.69,23.25l0 0c-17.99,15.55 -27.03,37.74 -27.03,66.74l0 0 0 186.02c0,29 9.04,51.26 27.03,66.75l0 0c17.99,15.48 44.59,23.25 79.69,23.25l0 0c35.14,0 61.7,-7.77 79.66,-23.25l0 0c18.06,-15.49 27.02,-37.75 27.02,-66.75z"/>
  <path class="fil4" d="M2384.91 2043.18l-108.02 0 0 357.79 71.58 0 0 -145.66 24.7 0c16.47,0 28.39,3.42 35.8,10.23l0 0c7.38,6.84 11.08,18.59 11.08,35.27l0 0 0 56.24c0,7.16 0.11,13.12 0.28,17.88l0 0c0.21,4.77 0.67,8.72 1.34,11.75l0 0c0.64,3.11 1.38,5.65 2.26,7.66l0 0c0.85,2.04 1.69,4.3 2.61,6.63l0 0 72.85 0c-3.46,-6.77 -5.61,-13.51 -6.49,-20.15l0 0c-0.92,-6.66 -1.31,-14.42 -1.31,-23.28l0 0 0 -55.21c0,-18.7 -3.38,-34.68 -10.12,-47.76l0 0c-6.7,-13.13 -19.16,-22.58 -37.4,-28.37l0 0c31.26,-11.57 46.85,-35.8 46.85,-72.56l0 0 0 -28.16c0,-27.58 -8.36,-48.22 -25.04,-61.84l0 0c-16.69,-13.61 -43.68,-20.46 -80.97,-20.46zm-36.44 51.12l34.47 0c12.56,0 21.8,2.89 27.66,8.71l0 0c5.85,5.79 8.78,15.14 8.78,28.12l0 0 0 35.24c0,14.29 -3.81,24.2 -11.39,29.63l0 0c-7.59,5.51 -18.1,8.22 -31.54,8.22l0 0 -27.98 0 0 -109.92z"/>
  <polygon class="fil5" points="2733.56,2400.97 2733.56,2349.89 2609.99,2349.89 2609.99,2245.11 2708.2,2245.11 2708.2,2193.96 2609.99,2193.96 2609.99,2094.3 2733.56,2094.3 2733.56,2043.18 2538.41,2043.18 2538.41,2400.97 "/>
  <polygon class="fil6" points="2972.96,2043.18 2777.8,2043.18 2777.8,2400.97 2972.96,2400.97 2972.96,2349.89 2849.42,2349.89 2849.42,2245.11 2947.59,2245.11 2947.59,2193.96 2849.42,2193.96 2849.42,2094.3 2972.96,2094.3 "/>
  <polygon class="fil7" points="3243.61,2400.97 3243.61,2043.18 3179.86,2043.18 3179.86,2257.39 3106.31,2043.18 3016.56,2043.18 3016.56,2400.97 3080.98,2400.97 3080.98,2141.89 3170.09,2400.97 "/>
  <path class="fil8" d="M2023.18 2465.32l0 357.82 71.54 0 0 -134.45 33.83 0c35.98,0 62.79,-7.51 80.36,-22.5l0 0c17.57,-15 26.32,-36.94 26.32,-65.94l0 0 0 -46.49c0,-28.97 -8.75,-50.94 -26.32,-65.94l0 0c-17.57,-14.99 -44.38,-22.5 -80.36,-22.5l0 0 -105.37 0zm71.54 51.15l33.83 0c11.29,0 19.93,2.33 26.04,7.12l0 0c6.06,4.77 9.1,13.62 9.1,26.6l0 0 0 53.66c0,12.95 -3.04,21.8 -9.1,26.57l0 0c-6.11,4.79 -14.75,7.16 -26.04,7.16l0 0 -33.83 0 0 -121.11z"/>
  <path class="fil9" d="M2317.25 2465.32l-72.88 357.82 65.68 0 12.39 -64.91 87.8 0 12.39 64.91 72.17 0 -72.84 -357.82 -104.71 0zm48.75 63.39l34.47 180.94 -68.93 0 34.46 -180.94z"/>
  <path class="fil10" d="M2528 2465.32l0 357.82 71.58 0 0 -145.7 24.69 0c16.51,0 28.4,3.39 35.81,10.23l0 0c7.37,6.81 11.08,18.56 11.08,35.28l0 0 0 56.2c0,7.19 0.1,13.16 0.28,17.88l0 0c0.21,4.8 0.67,8.75 1.34,11.79l0 0c0.64,3.06 1.38,5.6 2.26,7.65l0 0c0.85,2.05 1.73,4.27 2.61,6.67l0 0 72.85 0c-3.46,-6.85 -5.61,-13.55 -6.49,-20.22l0 0c-0.92,-6.63 -1.31,-14.39 -1.31,-23.21l0 0 0 -55.24c0,-18.7 -3.39,-34.65 -10.12,-47.81l0 0c-6.67,-13.08 -19.16,-22.57 -37.4,-28.36l0 0c31.26,-11.53 46.89,-35.77 46.89,-72.57l0 0 0 -28.11c0,-27.59 -8.4,-48.23 -25.05,-61.84l0 0c-16.72,-13.66 -43.71,-20.46 -81,-20.46l0 0 -108.02 0zm71.58 51.15l34.47 0c12.55,0 21.8,2.89 27.65,8.64l0 0c5.86,5.79 8.79,15.17 8.79,28.12l0 0 0 35.28c0,14.32 -3.81,24.2 -11.4,29.63l0 0c-7.58,5.47 -18.09,8.22 -31.54,8.22l0 0 -27.97 0 0 -109.89z"/>
  <path class="fil11" d="M2843.53 2465.32l-72.89 357.82 65.76 0 12.35 -64.91 87.8 0 12.39 64.91 72.21 0 -72.89 -357.82 -104.73 0zm48.78 63.39l34.51 180.94 -68.97 0 34.46 -180.94z"/>
  <path class="fil12" d="M3274.2 2734.66l0 -180.9c0,-28.97 -8.82,-50.94 -26.36,-65.94l0 0c-17.6,-14.99 -44.38,-22.5 -80.36,-22.5l0 0 -113.21 0 0 357.82 113.21 0c35.98,0 62.76,-7.52 80.36,-22.51l0 0c17.54,-14.99 26.36,-36.97 26.36,-65.97zm-148.31 -218.19l40.29 0c11.28,0 20.17,2.54 26.7,7.62l0 0c6.46,5.15 9.74,14.14 9.74,27.09l0 0 0 186.06c0,12.98 -3.28,21.97 -9.74,27.13l0 0c-6.53,5.08 -15.42,7.65 -26.7,7.65l0 0 -40.29 0 0 -255.55z"/>
  <polygon class="fil13" points="3391.28,2823.14 3391.28,2465.32 3319.67,2465.32 3319.67,2823.14 "/>
  <path class="fil14" d="M3432.24 2715.26l0 21.98c0,28.96 9,51.22 27.02,66.71l0 0c17.96,15.52 44.52,23.28 79.7,23.28 35.1,0 61.66,-7.76 79.65,-23.28l0 0c18.03,-15.49 27.03,-37.75 27.03,-66.71l0 0c0,-17.01 -3.5,-31.82 -10.41,-44.45l0 0c-6.99,-12.6 -15.59,-23.85 -26.04,-33.73l0 0c-10.44,-9.88 -21.59,-18.98 -33.51,-27.34l0 0c-11.89,-8.4 -23.07,-16.72 -33.48,-25.05l0 0c-10.44,-8.36 -19.08,-17.21 -26.03,-26.6l0 0c-6.95,-9.38 -10.41,-20.18 -10.41,-32.45l0 0c0,-12.95 3.1,-22.05 9.45,-27.34l0 0c6.25,-5.29 15.03,-7.94 26.36,-7.94l0 0c11.25,0 20,2.65 26.31,7.94l0 0c6.32,5.29 9.42,14.39 9.42,27.34l0 0 0 14.81 67.67 0 0 -11.25c0,-28.93 -8.79,-51.15 -26.36,-66.71l0 0c-17.53,-15.49 -43.88,-23.25 -79.02,-23.25l0 0c-35.17,0 -61.49,7.76 -79.02,23.25l0 0c-17.57,15.56 -26.35,37.78 -26.35,66.71l0 0c0,17.04 3.45,31.89 10.4,44.49l0 0c6.92,12.63 15.6,23.84 26,33.72l0 0c10.45,9.92 21.59,18.98 33.52,27.38l0 0c11.92,8.36 23.1,16.65 33.48,25.04l0 0c10.44,8.33 19.08,17.19 26.07,26.53l0 0c6.91,9.42 10.37,20.22 10.37,32.49l0 0c0,12.95 -3.35,21.98 -10.09,27.13l0 0c-6.7,5.08 -15.7,7.62 -26.95,7.62l0 0c-11.33,0 -20.29,-2.54 -27.03,-7.62l0 0c-6.74,-5.15 -10.09,-14.18 -10.09,-27.13l0 0 0 -25.57 -67.66 0z"/>
  <polygon class="fil15" points="3686.59,2465.32 3686.59,2823.14 3881.75,2823.14 3881.75,2772.02 3758.17,2772.02 3758.17,2667.25 3856.39,2667.25 3856.39,2616.13 3758.17,2616.13 3758.17,2516.47 3881.75,2516.47 3881.75,2465.32 "/>
  <path class="fil16 str0" d="M2130.51 2252.75l32.53 0 0 65.93c0,12.95 -3.35,21.98 -10.06,27.13 -6.77,5.08 -15.77,7.62 -27.02,7.62 -11.29,0 -20.28,-2.54 -27.02,-7.62 -6.7,-5.15 -10.06,-14.18 -10.06,-27.13l0 -193.18c0,-12.98 3.36,-22.05 10.06,-27.38 6.74,-5.25 15.73,-7.9 27.02,-7.9 11.25,0 20.25,2.65 27.02,7.9 6.71,5.33 10.06,14.4 10.06,27.38l0 38.31 67.66 0 0 -34.75c0,-28.96 -9,-51.19 -27.02,-66.71 -17.99,-15.49 -44.52,-23.28 -79.69,-23.28 -35.11,0 -61.71,7.79 -79.66,23.28 -17.99,15.52 -27.02,37.75 -27.02,66.71l0 186.06c0,28.96 9.03,51.22 27.02,66.71 17.95,15.52 44.55,23.24 79.66,23.24 35.17,0 61.7,-7.72 79.69,-23.24 18.02,-15.49 27.02,-37.75 27.02,-66.71l0 -113.46 -100.19 0 0 51.09z"/>
  <path class="fil16 str0" d="M2499.38 2400.99c-3.46,-6.81 -5.61,-13.55 -6.49,-20.18 -0.89,-6.67 -1.31,-14.39 -1.31,-23.25l0 -55.24c0,-18.7 -3.35,-34.64 -10.09,-47.77 -6.7,-13.09 -19.19,-22.58 -37.39,-28.36 31.22,-11.57 46.84,-35.81 46.84,-72.6l0 -28.12c0,-27.59 -8.39,-48.22 -25.04,-61.84 -16.72,-13.62 -43.71,-20.46 -81,-20.46l-108.02 0 0 357.82 71.61 0 0 -145.7 24.7 0c16.47,0 28.4,3.42 35.77,10.23 7.37,6.85 11.08,18.59 11.08,35.28l0 56.23c0,7.17 0.1,13.13 0.31,17.89 0.22,4.76 0.64,8.71 1.31,11.78 0.63,3.07 1.41,5.61 2.26,7.66 0.88,2.01 1.73,4.27 2.64,6.63l72.82 0zm-116.46 -306.67c12.6,0 21.81,2.89 27.66,8.68 5.86,5.78 8.79,15.13 8.79,28.11l0 35.28c0,14.29 -3.81,24.17 -11.4,29.6 -7.58,5.5 -18.1,8.22 -31.5,8.22l-27.98 0 0 -109.89 34.43 0z"/>
  <polygon class="fil16 str0" points="2610,2094.31 2733.58,2094.31 2733.58,2043.19 2538.42,2043.19 2538.42,2400.98 2733.58,2400.98 2733.58,2349.86 2610,2349.86 2610,2245.08 2708.21,2245.08 2708.21,2193.97 2610,2193.97 "/>
  <polygon class="fil16 str0" points="2849.4,2094.31 2972.98,2094.31 2972.98,2043.19 2777.82,2043.19 2777.82,2400.98 2972.98,2400.98 2972.98,2349.86 2849.4,2349.86 2849.4,2245.08 2947.61,2245.08 2947.61,2193.97 2849.4,2193.97 "/>
  <polygon class="fil16 str0" points="3170.1,2400.99 3243.62,2400.99 3243.62,2043.17 3179.84,2043.17 3179.84,2257.37 3106.32,2043.17 3016.54,2043.17 3016.54,2400.99 3080.99,2400.99 3080.99,2141.84 "/>
  <path class="fil16 str0" d="M2023.16 2465.31l0 357.82 71.58 0 0 -134.44 33.8 0c36.01,0 62.83,-7.52 80.39,-22.51 17.54,-14.96 26.32,-36.97 26.32,-65.93l0 -46.5c0,-28.96 -8.78,-50.98 -26.32,-65.93 -17.56,-15 -44.38,-22.51 -80.39,-22.51l-105.38 0zm105.38 51.12c11.32,0 19.96,2.39 26.07,7.16 6.03,4.76 9.06,13.61 9.06,26.56l0 53.69c0,12.95 -3.03,21.81 -9.06,26.57 -6.11,4.76 -14.75,7.16 -26.07,7.16l-33.8 0 0 -121.14 33.8 0z"/>
  <path class="fil16 str0" d="M2421.97 2465.31l-104.74 0 -72.85 357.82 65.69 0 12.38 -64.91 87.8 0 12.39 64.91 72.17 0 -72.84 -357.82zm-55.95 63.39l34.5 180.94 -68.97 0 34.47 -180.94z"/>
  <path class="fil16 str0" d="M2750.49 2823.12c-3.46,-6.81 -5.61,-13.55 -6.49,-20.18 -0.88,-6.67 -1.31,-14.4 -1.31,-23.25l0 -55.25c0,-18.69 -3.35,-34.64 -10.09,-47.76 -6.7,-13.09 -19.19,-22.58 -37.39,-28.36 31.22,-11.58 46.85,-35.81 46.85,-72.61l0 -28.11c0,-27.59 -8.4,-48.23 -25.05,-61.84 -16.72,-13.62 -43.71,-20.47 -81,-20.47l-108.02 0 0 357.83 71.62 0 0 -145.7 24.69 0c16.48,0 28.4,3.42 35.77,10.23 7.38,6.84 11.08,18.59 11.08,35.28l0 56.23c0,7.16 0.11,13.12 0.32,17.89 0.21,4.76 0.63,8.71 1.3,11.78 0.64,3.07 1.41,5.61 2.26,7.65 0.88,2.02 1.73,4.27 2.65,6.64l72.81 0zm-116.45 -306.67c12.59,0 21.8,2.89 27.66,8.68 5.85,5.78 8.78,15.13 8.78,28.11l0 35.28c0,14.29 -3.81,24.16 -11.39,29.6 -7.59,5.5 -18.1,8.22 -31.51,8.22l-27.97 0 0 -109.89 34.43 0z"/>
  <path class="fil16 str0" d="M2948.27 2465.31l-104.74 0 -72.85 357.82 65.69 0 12.38 -64.91 87.81 0 12.38 64.91 72.18 0 -72.85 -357.82zm-55.95 63.39l34.5 180.94 -68.97 0 34.47 -180.94z"/>
  <path class="fil16 str0" d="M3054.28 2823.12l113.2 0c35.99,0 62.76,-7.48 80.33,-22.51 17.57,-14.96 26.35,-36.97 26.35,-65.93l0 -180.94c0,-28.97 -8.78,-50.95 -26.35,-65.94 -17.57,-14.99 -44.34,-22.51 -80.33,-22.51l-113.2 0 0 357.83zm111.9 -306.67c11.29,0 20.18,2.54 26.7,7.62 6.46,5.15 9.74,14.18 9.74,27.13l0 186.02c0,12.98 -3.28,21.97 -9.74,27.12 -6.52,5.12 -15.41,7.66 -26.7,7.66l-40.32 0 0 -255.55 40.32 0z"/>
  <polygon class="fil16 str0" points="3319.7,2823.1 3391.28,2823.1 3391.28,2465.28 3319.7,2465.28 "/>
  <path class="fil16 str0" d="M3444.61 2595.67c6.91,12.59 15.59,23.85 26,33.73 10.44,9.87 21.62,18.98 33.51,27.34 11.93,8.36 23.11,16.68 33.52,25.04 10.44,8.36 19.08,17.22 26.03,26.57 6.92,9.38 10.41,20.21 10.41,32.45 0,12.95 -3.39,21.98 -10.09,27.13 -6.74,5.08 -15.73,7.66 -26.99,7.66 -11.29,0 -20.28,-2.58 -26.99,-7.66 -6.73,-5.15 -10.12,-14.18 -10.12,-27.13l0 -25.54 -67.66 0 0 21.98c0,28.96 8.99,51.22 27.02,66.71 17.99,15.52 44.56,23.25 79.69,23.25 35.14,0 61.7,-7.73 79.69,-23.25 18,-15.49 26.99,-37.75 26.99,-66.71 0,-17.04 -3.46,-31.86 -10.41,-44.45 -6.94,-12.59 -15.59,-23.88 -25.99,-33.76 -10.45,-9.84 -21.59,-18.98 -33.52,-27.34 -11.92,-8.36 -23.07,-16.69 -33.48,-25.01 -10.44,-8.4 -19.08,-17.25 -26.07,-26.6 -6.91,-9.39 -10.4,-20.22 -10.4,-32.46 0,-12.95 3.14,-22.05 9.45,-27.37 6.28,-5.26 15.06,-7.91 26.35,-7.91 11.26,0 20.04,2.65 26.35,7.91 6.28,5.32 9.42,14.42 9.42,27.37l0 14.82 67.67 0 0 -11.26c0,-28.96 -8.79,-51.18 -26.36,-66.71 -17.53,-15.48 -43.92,-23.28 -79.05,-23.28 -35.14,0 -61.46,7.8 -79.03,23.28 -17.56,15.53 -26.35,37.75 -26.35,66.71 0,17.04 3.49,31.9 10.41,44.49z"/>
  <polygon class="fil16 str0" points="3758.18,2516.43 3881.76,2516.43 3881.76,2465.32 3686.6,2465.32 3686.6,2823.1 3881.76,2823.1 3881.76,2771.98 3758.18,2771.98 3758.18,2667.21 3856.4,2667.21 3856.4,2616.09 3758.18,2616.09 "/>
 </g>
</svg>
