<?xml version="1.0" encoding="UTF-8"?>
<!DOCTYPE svg PUBLIC "-//W3C//DTD SVG 1.1//EN" "http://www.w3.org/Graphics/SVG/1.1/DTD/svg11.dtd">
<!-- Creator: CorelDRAW 2020 (64-Bit) -->
<svg xmlns="http://www.w3.org/2000/svg" xml:space="preserve" width="49.7416mm" height="49.7416mm" version="1.1" style="shape-rendering:geometricPrecision; text-rendering:geometricPrecision; image-rendering:optimizeQuality; fill-rule:evenodd; clip-rule:evenodd"
viewBox="0 0 4974.16 4974.16"
 xmlns:xlink="http://www.w3.org/1999/xlink"
 xmlns:xodm="http://www.corel.com/coreldraw/odm/2003">
 <defs>
  <style type="text/css">
   <![CDATA[
    .str0 {stroke:black;stroke-width:7.62;stroke-miterlimit:10}
    .fil2 {fill:none;fill-rule:nonzero}
    .fil1 {fill:#00A551;fill-rule:nonzero}
    .fil0 {fill:#231F20;fill-rule:nonzero}
    .fil3 {fill:#8BC541;fill-rule:nonzero}
    .fil4 {fill:white;fill-rule:nonzero}
   ]]>
  </style>
 </defs>
 <g id="Layer_x0020_1">
  <metadata id="CorelCorpID_0Corel-Layer"/>
  <g id="_878603312">
   <path class="fil0" d="M1280.05 3136.08l-49.55 47.94c-10.66,-8.67 -21.31,-15.14 -31.84,-19.31 -10.53,-4.06 -21.31,-6.14 -32.32,-6.14 -22.5,0 -41.41,7.13 -56.72,21.5 -15.33,14.37 -22.99,32.15 -22.99,53.43 0,20.85 7.42,38.29 22.27,52.23 14.83,13.93 33.15,20.95 55.05,20.95 15.44,0 28.97,-3.95 40.81,-11.96 11.85,-7.9 20.59,-18.98 26.22,-33.24l-72.66 0 0 -60.01 154.28 0 0 11.3c0,17.88 -1.43,33.79 -4.31,47.72 -2.99,13.94 -7.42,26.44 -13.41,37.74 -12.56,23.59 -30.39,42.14 -53.49,55.63 -23.22,13.5 -48.95,20.3 -77.08,20.3 -21.18,0 -40.94,-3.51 -59.48,-10.64 -18.56,-7.03 -35.08,-17.23 -49.55,-30.51 -14.25,-13.38 -25.26,-28.52 -32.81,-45.53 -7.65,-16.89 -11.48,-34.78 -11.48,-53.54 0,-18.76 3.83,-36.64 11.48,-53.43 7.55,-16.79 18.68,-31.93 33.16,-45.2 14.48,-13.5 31.12,-23.81 50.16,-30.83 19.02,-7.02 39.13,-10.53 60.55,-10.53 20.95,0 40.81,3.51 59.73,10.42 18.91,7.02 36.86,17.55 53.98,31.71zm64.5 233.03l0 -176.97c0,-29.29 9.7,-52.99 29.21,-71.09 19.39,-18.11 44.89,-27.1 76.36,-27.1 28.72,0 53.15,7.68 73.38,23.15 20.1,15.47 30.16,33.9 30.16,55.4 0,13.72 -4.31,25.89 -12.81,36.32 -8.5,10.42 -20.35,17.99 -35.43,22.49 18.8,1.86 32.19,7.13 40.45,15.8 8.15,8.67 12.22,22.05 12.22,40.26l0 82.07 -73.38 0 0 -65.39c0,-14.26 -3.23,-24.03 -9.81,-29.29 -6.58,-5.27 -19.39,-7.9 -38.19,-7.9l-6.81 0 0 -60.68 10.88 0c11.86,0 20.72,-2.19 26.82,-6.47 6.11,-4.28 9.1,-10.64 9.1,-19.09 0,-7.35 -2.51,-13.38 -7.66,-18.21 -5.15,-4.72 -11.61,-7.13 -19.4,-7.13 -9.93,0 -17.7,3.29 -23.21,9.76 -5.51,6.58 -8.26,15.91 -8.26,27.87l0 176.2 -73.62 0zm429.93 0.33l-7.67 0c-25.72,0 -48.11,-1.87 -67.37,-5.71 -19.28,-3.73 -35.44,-9.43 -48.72,-17.11 -21.55,-12.73 -38.18,-28.86 -49.91,-48.39 -11.85,-19.52 -17.72,-40.92 -17.72,-64.29 0,-23.37 5.87,-44.65 17.6,-64.07 11.61,-19.42 28.36,-35.44 50.03,-48.17 13.28,-7.68 29.44,-13.38 48.72,-17.22 19.26,-3.84 41.65,-5.71 67.37,-5.71l7.67 0 0 61.66c-1.92,-0.11 -3.95,-0.22 -6.11,-0.33 -2.15,-0.11 -5.27,-0.11 -9.22,-0.11 -25.85,0 -46.44,3.51 -61.63,10.43 -15.2,6.91 -26.22,17.66 -32.8,32.14l109.76 0 0 60.46 -111.2 0c4.91,14.81 15.56,26 31.85,33.46 16.15,7.57 38.05,11.3 65.46,11.3 3.71,0 6.58,0 8.62,-0.11 2.03,0 3.71,0 5.27,0l0 61.77zm220.82 0l-7.67 0c-25.72,0 -48.11,-1.87 -67.37,-5.71 -19.28,-3.73 -35.43,-9.43 -48.72,-17.11 -21.55,-12.73 -38.18,-28.86 -49.91,-48.39 -11.85,-19.52 -17.72,-40.92 -17.72,-64.29 0,-23.37 5.87,-44.65 17.6,-64.07 11.61,-19.42 28.36,-35.44 50.03,-48.17 13.29,-7.68 29.44,-13.38 48.72,-17.22 19.26,-3.84 41.65,-5.71 67.37,-5.71l7.67 0 0 61.66c-1.92,-0.11 -3.95,-0.22 -6.11,-0.33 -2.15,-0.11 -5.27,-0.11 -9.21,-0.11 -25.86,0 -46.44,3.51 -61.64,10.43 -15.2,6.91 -26.22,17.66 -32.79,32.14l109.75 0 0 60.46 -111.19 0c4.91,14.81 15.55,26 31.84,33.46 16.16,7.57 38.05,11.3 65.47,11.3 3.7,0 6.57,0 8.61,-0.11 2.03,0 3.71,0 5.27,0l0 61.77zm39.13 0l0 -229.08c0,-14.49 4.07,-26.01 12.33,-34.46 8.14,-8.44 19.03,-12.72 32.67,-12.72 11.26,0 20.95,2.96 29.09,8.77 8.01,5.82 16.99,17.12 26.93,33.69l38.78 64.29c8.14,13.5 14.48,24.8 19.15,34.01 4.55,9.22 8.26,17.67 11.01,25.46 -1.67,-16.57 -2.99,-31.71 -3.83,-45.21 -0.95,-13.49 -1.43,-23.8 -1.43,-30.94l0 -84.48 70.97 0 0 238.19c0,10.98 -3.35,19.86 -10.18,26.67 -6.81,6.8 -15.79,10.2 -26.92,10.2 -9.46,0 -17.6,-2.31 -24.19,-6.8 -6.69,-4.5 -13.99,-13.28 -21.77,-26.34l-57.58 -95.23c-1.19,-2.08 -2.99,-5.15 -5.5,-9.21 -12.8,-21.07 -21.54,-38.08 -26.45,-51.02 2.75,17.99 4.79,34.34 6.1,49.15 1.32,14.81 1.92,28.75 1.92,41.69l0 93.37 -71.1 0zm395.94 0l0 -174.23c0,-30.39 9.94,-54.85 29.68,-73.4 19.76,-18.54 45.96,-27.86 78.4,-27.86 29.81,0 54.7,9.1 74.93,27.2 20.1,18.22 30.16,40.6 30.16,67.26 0,28.31 -10.78,51.13 -32.44,68.35 -21.66,17.23 -50.51,25.9 -86.53,25.9l-7.66 0 0 -64.63 11.37 0c12.56,0 22.38,-2.74 29.56,-8.23 7.06,-5.48 10.65,-12.94 10.65,-22.38 0,-8.34 -2.99,-15.25 -8.97,-20.73 -5.99,-5.38 -13.53,-8.12 -22.75,-8.12 -10.29,0 -18.31,3.18 -24.05,9.54 -5.87,6.37 -8.74,15.25 -8.74,26.66l0 174.67 -73.61 0zm242.48 0l0 -159.85c0,-35.22 10.3,-63.2 30.77,-84.05 20.46,-20.84 47.64,-31.27 81.63,-31.27 33.87,0 61.16,10.43 81.86,31.38 20.59,20.96 30.89,48.94 30.89,83.94l0 159.85 -73.26 0 0 -100.17 -65.7 0 0 -63.52 65.7 0 0 -3.19c0,-12.94 -3.59,-23.26 -10.65,-31.05 -7.18,-7.68 -16.75,-11.52 -28.84,-11.52 -12.81,0 -22.5,3.95 -29.2,11.85 -6.71,7.9 -10.06,19.31 -10.06,34.34l0 163.26 -73.14 0zm263.92 -0.33l0 -176.97c0,-29.29 9.7,-52.99 29.2,-71.09 19.4,-18.11 44.89,-27.1 76.36,-27.1 28.73,0 53.15,7.68 73.38,23.15 20.1,15.47 30.16,33.9 30.16,55.4 0,13.72 -4.31,25.89 -12.8,36.32 -8.5,10.42 -20.36,17.99 -35.44,22.49 18.8,1.86 32.2,7.13 40.45,15.8 8.15,8.67 12.22,22.05 12.22,40.26l0 82.07 -73.37 0 0 -65.39c0,-14.26 -3.23,-24.03 -9.82,-29.29 -6.58,-5.27 -19.39,-7.9 -38.18,-7.9l-6.82 0 0 -60.68 10.89 0c11.85,0 20.71,-2.19 26.81,-6.47 6.11,-4.28 9.1,-10.64 9.1,-19.09 0,-7.35 -2.51,-13.38 -7.66,-18.21 -5.15,-4.72 -11.61,-7.13 -19.4,-7.13 -9.92,0 -17.7,3.29 -23.21,9.76 -5.51,6.58 -8.26,15.91 -8.26,27.87l0 176.2 -73.61 0zm248.71 0.33l0 -270.67 54.22 0c28.72,0 51.35,1.65 67.87,4.83 16.39,3.18 30.99,8.45 43.8,15.8 22.98,13.06 40.7,29.62 53.27,49.48 12.44,19.97 18.66,41.69 18.66,65.06 0,22.49 -5.74,43.45 -17.12,62.98 -11.36,19.64 -27.4,35.98 -47.98,49.26 -11.02,6.91 -23.83,12.4 -38.31,16.24 -14.6,3.95 -31.12,6.25 -49.55,7.02l0 -65.06c22.98,-0.77 41.66,-7.68 55.89,-20.85 14.25,-13.16 21.43,-29.84 21.43,-50.03 0,-20.51 -7.54,-37.41 -22.74,-50.79 -15.2,-13.28 -34.71,-19.97 -58.64,-19.97 -0.84,0 -2.04,0 -3.6,0.11 -1.55,0.11 -2.75,0.22 -3.59,0.22l0 206.37 -73.61 0zm272.05 0l0 -270.67 73.37 0 0 270.67 -73.37 0zm110 0l0 -64.62 101.62 0c5.86,0 10.53,-1.1 13.75,-3.4 3.24,-2.31 4.79,-5.6 4.79,-9.88 0,-3.73 -1.67,-7.46 -4.91,-11.19 -3.34,-3.73 -8.49,-7.57 -15.31,-11.41l-56.74 -31.38c-12.8,-7.35 -23.09,-16.78 -30.75,-28.3 -7.78,-11.52 -11.61,-23.37 -11.61,-35.66 0,-11.74 2.15,-22.49 6.58,-32.15 4.43,-9.65 10.89,-17.88 19.5,-24.68 8.14,-6.59 18.08,-11.19 29.93,-13.94 11.84,-2.74 31,-4.06 57.58,-4.06l67.37 0 0 61.99 -77.31 0c-10.66,0 -18.08,0.77 -22.15,2.31 -4.07,1.64 -6.1,4.27 -6.1,8.11 0,3.63 1.55,7.25 4.78,10.87 3.12,3.62 8.03,7.24 14.61,10.86l55.42 30.28c15.79,8.78 27.88,19.2 36.14,31.27 8.26,12.18 12.33,25.34 12.33,39.61 0,12.17 -2.75,23.58 -8.38,34.01 -5.62,10.42 -13.53,18.98 -23.58,25.45 -8.73,5.71 -18.67,9.77 -29.68,12.18 -11.01,2.52 -28.48,3.73 -52.31,3.73l-4.55 0 -81.02 0zm416.28 0l-7.67 0c-25.72,0 -48.11,-1.87 -67.37,-5.71 -19.28,-3.73 -35.44,-9.43 -48.72,-17.11 -21.55,-12.73 -38.19,-28.86 -49.91,-48.39 -11.85,-19.52 -17.72,-40.92 -17.72,-64.29 0,-23.37 5.87,-44.65 17.6,-64.07 11.6,-19.42 28.36,-35.44 50.03,-48.17 13.28,-7.68 29.44,-13.38 48.72,-17.22 19.26,-3.84 41.65,-5.71 67.37,-5.71l7.67 0 0 61.66c-1.92,-0.11 -3.95,-0.22 -6.11,-0.33 -2.15,-0.11 -5.27,-0.11 -9.22,-0.11 -25.85,0 -46.44,3.51 -61.63,10.43 -15.2,6.91 -26.22,17.66 -32.8,32.14l109.76 0 0 60.46 -111.2 0c4.91,14.81 15.56,26 31.85,33.46 16.15,7.57 38.05,11.3 65.46,11.3 3.71,0 6.58,0 8.62,-0.11 2.03,0 3.71,0 5.27,0l0 61.77z"/>
   <path class="fil1" d="M1280.05 3136.08l-49.55 47.94c-10.66,-8.67 -21.31,-15.14 -31.84,-19.31 -10.53,-4.06 -21.31,-6.14 -32.32,-6.14 -22.5,0 -41.41,7.13 -56.72,21.5 -15.33,14.37 -22.99,32.15 -22.99,53.43 0,20.85 7.42,38.29 22.27,52.23 14.83,13.93 33.15,20.95 55.05,20.95 15.44,0 28.97,-3.95 40.81,-11.96 11.85,-7.9 20.59,-18.98 26.22,-33.24l-72.66 0 0 -60.01 154.28 0 0 11.3c0,17.88 -1.43,33.79 -4.31,47.72 -2.99,13.94 -7.42,26.44 -13.41,37.74 -12.56,23.59 -30.39,42.14 -53.49,55.63 -23.22,13.5 -48.95,20.3 -77.08,20.3 -21.18,0 -40.94,-3.51 -59.48,-10.64 -18.56,-7.03 -35.08,-17.23 -49.55,-30.51 -14.25,-13.38 -25.26,-28.52 -32.81,-45.53 -7.65,-16.89 -11.48,-34.78 -11.48,-53.54 0,-18.76 3.83,-36.64 11.48,-53.43 7.55,-16.79 18.68,-31.93 33.16,-45.2 14.48,-13.5 31.12,-23.81 50.16,-30.83 19.02,-7.02 39.13,-10.53 60.55,-10.53 20.95,0 40.81,3.51 59.73,10.42 18.91,7.02 36.86,17.55 53.98,31.71zm64.5 233.03l0 -176.97c0,-29.29 9.7,-52.99 29.21,-71.09 19.39,-18.11 44.89,-27.1 76.36,-27.1 28.72,0 53.15,7.68 73.38,23.15 20.1,15.47 30.16,33.9 30.16,55.4 0,13.72 -4.31,25.89 -12.81,36.32 -8.5,10.42 -20.35,17.99 -35.43,22.49 18.8,1.86 32.19,7.13 40.45,15.8 8.15,8.67 12.22,22.05 12.22,40.26l0 82.07 -73.38 0 0 -65.39c0,-14.26 -3.23,-24.03 -9.81,-29.29 -6.58,-5.27 -19.39,-7.9 -38.19,-7.9l-6.81 0 0 -60.68 10.88 0c11.86,0 20.72,-2.19 26.82,-6.47 6.11,-4.28 9.1,-10.64 9.1,-19.09 0,-7.35 -2.51,-13.38 -7.66,-18.21 -5.15,-4.72 -11.61,-7.13 -19.4,-7.13 -9.93,0 -17.7,3.29 -23.21,9.76 -5.51,6.58 -8.26,15.91 -8.26,27.87l0 176.2 -73.62 0zm429.93 0.33l-7.67 0c-25.72,0 -48.11,-1.87 -67.37,-5.71 -19.28,-3.73 -35.44,-9.43 -48.72,-17.11 -21.55,-12.73 -38.18,-28.86 -49.91,-48.39 -11.85,-19.52 -17.72,-40.92 -17.72,-64.29 0,-23.37 5.87,-44.65 17.6,-64.07 11.61,-19.42 28.36,-35.44 50.03,-48.17 13.28,-7.68 29.44,-13.38 48.72,-17.22 19.26,-3.84 41.65,-5.71 67.37,-5.71l7.67 0 0 61.66c-1.92,-0.11 -3.95,-0.22 -6.11,-0.33 -2.15,-0.11 -5.27,-0.11 -9.22,-0.11 -25.85,0 -46.44,3.51 -61.63,10.43 -15.2,6.91 -26.22,17.66 -32.8,32.14l109.76 0 0 60.46 -111.2 0c4.91,14.81 15.56,26 31.85,33.46 16.15,7.57 38.05,11.3 65.46,11.3 3.71,0 6.58,0 8.62,-0.11 2.03,0 3.71,0 5.27,0l0 61.77zm220.82 0l-7.67 0c-25.72,0 -48.11,-1.87 -67.37,-5.71 -19.28,-3.73 -35.43,-9.43 -48.72,-17.11 -21.55,-12.73 -38.18,-28.86 -49.91,-48.39 -11.85,-19.52 -17.72,-40.92 -17.72,-64.29 0,-23.37 5.87,-44.65 17.6,-64.07 11.61,-19.42 28.36,-35.44 50.03,-48.17 13.29,-7.68 29.44,-13.38 48.72,-17.22 19.26,-3.84 41.65,-5.71 67.37,-5.71l7.67 0 0 61.66c-1.92,-0.11 -3.95,-0.22 -6.11,-0.33 -2.15,-0.11 -5.27,-0.11 -9.21,-0.11 -25.86,0 -46.44,3.51 -61.64,10.43 -15.2,6.91 -26.22,17.66 -32.79,32.14l109.75 0 0 60.46 -111.19 0c4.91,14.81 15.55,26 31.84,33.46 16.16,7.57 38.05,11.3 65.47,11.3 3.7,0 6.57,0 8.61,-0.11 2.03,0 3.71,0 5.27,0l0 61.77zm39.13 0l0 -229.08c0,-14.49 4.07,-26.01 12.33,-34.46 8.14,-8.44 19.03,-12.72 32.67,-12.72 11.26,0 20.95,2.96 29.09,8.77 8.01,5.82 16.99,17.12 26.93,33.69l38.78 64.29c8.14,13.5 14.48,24.8 19.15,34.01 4.55,9.22 8.26,17.67 11.01,25.46 -1.67,-16.57 -2.99,-31.71 -3.83,-45.21 -0.95,-13.49 -1.43,-23.8 -1.43,-30.94l0 -84.48 70.97 0 0 238.19c0,10.98 -3.35,19.86 -10.18,26.67 -6.81,6.8 -15.79,10.2 -26.92,10.2 -9.46,0 -17.6,-2.31 -24.19,-6.8 -6.69,-4.5 -13.99,-13.28 -21.77,-26.34l-57.58 -95.23c-1.19,-2.08 -2.99,-5.15 -5.5,-9.21 -12.8,-21.07 -21.54,-38.08 -26.45,-51.02 2.75,17.99 4.79,34.34 6.1,49.15 1.32,14.81 1.92,28.75 1.92,41.69l0 93.37 -71.1 0zm395.94 0l0 -174.23c0,-30.39 9.94,-54.85 29.68,-73.4 19.76,-18.54 45.96,-27.86 78.4,-27.86 29.81,0 54.7,9.1 74.93,27.2 20.1,18.22 30.16,40.6 30.16,67.26 0,28.31 -10.78,51.13 -32.44,68.35 -21.66,17.23 -50.51,25.9 -86.53,25.9l-7.66 0 0 -64.63 11.37 0c12.56,0 22.38,-2.74 29.56,-8.23 7.06,-5.48 10.65,-12.94 10.65,-22.38 0,-8.34 -2.99,-15.25 -8.97,-20.73 -5.99,-5.38 -13.53,-8.12 -22.75,-8.12 -10.29,0 -18.31,3.18 -24.05,9.54 -5.87,6.37 -8.74,15.25 -8.74,26.66l0 174.67 -73.61 0zm242.48 0l0 -159.85c0,-35.22 10.3,-63.2 30.77,-84.05 20.46,-20.84 47.64,-31.27 81.63,-31.27 33.87,0 61.16,10.43 81.86,31.38 20.59,20.96 30.89,48.94 30.89,83.94l0 159.85 -73.26 0 0 -100.17 -65.7 0 0 -63.52 65.7 0 0 -3.19c0,-12.94 -3.59,-23.26 -10.65,-31.05 -7.18,-7.68 -16.75,-11.52 -28.84,-11.52 -12.81,0 -22.5,3.95 -29.2,11.85 -6.71,7.9 -10.06,19.31 -10.06,34.34l0 163.26 -73.14 0zm263.92 -0.33l0 -176.97c0,-29.29 9.7,-52.99 29.2,-71.09 19.4,-18.11 44.89,-27.1 76.36,-27.1 28.73,0 53.15,7.68 73.38,23.15 20.1,15.47 30.16,33.9 30.16,55.4 0,13.72 -4.31,25.89 -12.8,36.32 -8.5,10.42 -20.36,17.99 -35.44,22.49 18.8,1.86 32.2,7.13 40.45,15.8 8.15,8.67 12.22,22.05 12.22,40.26l0 82.07 -73.37 0 0 -65.39c0,-14.26 -3.23,-24.03 -9.82,-29.29 -6.58,-5.27 -19.39,-7.9 -38.18,-7.9l-6.82 0 0 -60.68 10.89 0c11.85,0 20.71,-2.19 26.81,-6.47 6.11,-4.28 9.1,-10.64 9.1,-19.09 0,-7.35 -2.51,-13.38 -7.66,-18.21 -5.15,-4.72 -11.61,-7.13 -19.4,-7.13 -9.92,0 -17.7,3.29 -23.21,9.76 -5.51,6.58 -8.26,15.91 -8.26,27.87l0 176.2 -73.61 0zm248.71 0.33l0 -270.67 54.22 0c28.72,0 51.35,1.65 67.87,4.83 16.39,3.18 30.99,8.45 43.8,15.8 22.98,13.06 40.7,29.62 53.27,49.48 12.44,19.97 18.66,41.69 18.66,65.06 0,22.49 -5.74,43.45 -17.12,62.98 -11.36,19.64 -27.4,35.98 -47.98,49.26 -11.02,6.91 -23.83,12.4 -38.31,16.24 -14.6,3.95 -31.12,6.25 -49.55,7.02l0 -65.06c22.98,-0.77 41.66,-7.68 55.89,-20.85 14.25,-13.16 21.43,-29.84 21.43,-50.03 0,-20.51 -7.54,-37.41 -22.74,-50.79 -15.2,-13.28 -34.71,-19.97 -58.64,-19.97 -0.84,0 -2.04,0 -3.6,0.11 -1.55,0.11 -2.75,0.22 -3.59,0.22l0 206.37 -73.61 0zm272.05 0l0 -270.67 73.37 0 0 270.67 -73.37 0zm110 0l0 -64.62 101.62 0c5.86,0 10.53,-1.1 13.75,-3.4 3.24,-2.31 4.79,-5.6 4.79,-9.88 0,-3.73 -1.67,-7.46 -4.91,-11.19 -3.34,-3.73 -8.49,-7.57 -15.31,-11.41l-56.74 -31.38c-12.8,-7.35 -23.09,-16.78 -30.75,-28.3 -7.78,-11.52 -11.61,-23.37 -11.61,-35.66 0,-11.74 2.15,-22.49 6.58,-32.15 4.43,-9.65 10.89,-17.88 19.5,-24.68 8.14,-6.59 18.08,-11.19 29.93,-13.94 11.84,-2.74 31,-4.06 57.58,-4.06l67.37 0 0 61.99 -77.31 0c-10.66,0 -18.08,0.77 -22.15,2.31 -4.07,1.64 -6.1,4.27 -6.1,8.11 0,3.63 1.55,7.25 4.78,10.87 3.12,3.62 8.03,7.24 14.61,10.86l55.42 30.28c15.79,8.78 27.88,19.2 36.14,31.27 8.26,12.18 12.33,25.34 12.33,39.61 0,12.17 -2.75,23.58 -8.38,34.01 -5.62,10.42 -13.53,18.98 -23.58,25.45 -8.73,5.71 -18.67,9.77 -29.68,12.18 -11.01,2.52 -28.48,3.73 -52.31,3.73l-4.55 0 -81.02 0zm416.28 0l-7.67 0c-25.72,0 -48.11,-1.87 -67.37,-5.71 -19.28,-3.73 -35.44,-9.43 -48.72,-17.11 -21.55,-12.73 -38.19,-28.86 -49.91,-48.39 -11.85,-19.52 -17.72,-40.92 -17.72,-64.29 0,-23.37 5.87,-44.65 17.6,-64.07 11.6,-19.42 28.36,-35.44 50.03,-48.17 13.28,-7.68 29.44,-13.38 48.72,-17.22 19.26,-3.84 41.65,-5.71 67.37,-5.71l7.67 0 0 61.66c-1.92,-0.11 -3.95,-0.22 -6.11,-0.33 -2.15,-0.11 -5.27,-0.11 -9.22,-0.11 -25.85,0 -46.44,3.51 -61.63,10.43 -15.2,6.91 -26.22,17.66 -32.8,32.14l109.76 0 0 60.46 -111.2 0c4.91,14.81 15.56,26 31.85,33.46 16.15,7.57 38.05,11.3 65.46,11.3 3.71,0 6.58,0 8.62,-0.11 2.03,0 3.71,0 5.27,0l0 61.77z"/>
   <path class="fil2 str0" d="M1226.09 3104.37c-18.91,-6.98 -38.81,-10.48 -59.69,-10.48 -21.45,0 -41.66,3.53 -60.61,10.59 -18.98,7.05 -35.66,17.32 -50.13,30.8 -14.53,13.37 -25.65,28.46 -33.27,45.26 -7.62,16.82 -11.46,34.64 -11.46,53.41 0,18.77 3.84,36.62 11.46,53.55 7.62,16.97 18.6,32.14 32.88,45.44 14.43,13.37 30.94,23.56 49.5,30.65 18.52,7.06 38.38,10.55 59.58,10.55 28.15,0 53.84,-6.7 76.98,-20.21 23.18,-13.48 40.99,-32.07 53.51,-55.74 6.04,-11.22 10.52,-23.78 13.41,-37.71 2.89,-13.94 4.34,-29.81 4.34,-47.73l0 -11.33 -154.24 0 0 60.11 72.57 0c-5.61,14.22 -14.36,25.33 -26.17,33.24 -11.82,7.97 -25.44,11.92 -40.82,11.92 -21.87,0 -40.22,-6.98 -55.07,-20.95 -14.82,-14.01 -22.26,-31.4 -22.26,-52.18 0,-21.27 7.66,-39.12 23,-53.48 15.31,-14.39 34.26,-21.56 56.8,-21.56 11,0 21.73,2.09 32.28,6.25 10.51,4.16 21.13,10.58 31.82,19.26l49.49 -48.01c-17.04,-14.08 -34.99,-24.66 -53.9,-31.65z"/>
   <path class="fil2 str0" d="M1418.13 3369.06l0 -176.14c0,-11.96 2.76,-21.24 8.26,-27.76 5.5,-6.57 13.26,-9.85 23.28,-9.85 7.69,0 14.11,2.4 19.26,7.2 5.19,4.76 7.76,10.83 7.76,18.13 0,8.43 -3.03,14.82 -9.1,19.09 -6.03,4.27 -14.95,6.42 -26.77,6.42l-10.94 0 0 60.68 6.81 0c18.84,0 31.54,2.64 38.13,7.93 6.6,5.3 9.92,15.07 9.92,29.28l0 65.41 73.38 0 0 -82.02c0,-18.28 -4.1,-31.72 -12.25,-40.36 -8.18,-8.61 -21.69,-13.9 -40.53,-15.77 15.1,-4.55 26.95,-12.03 35.45,-22.51 8.54,-10.44 12.81,-22.54 12.81,-36.26 0,-21.59 -10.09,-40.04 -30.23,-55.49 -20.11,-15.42 -44.56,-23.15 -73.27,-23.15 -31.47,0 -56.94,9.04 -76.38,27.13 -19.47,18.07 -29.18,41.77 -29.18,71.12l0 176.92 73.59 0z"/>
   <path class="fil2 str0" d="M1774.39 3307.64c-1.51,0 -3.24,0.03 -5.25,0.1 -2.01,0.07 -4.84,0.11 -8.58,0.11 -27.48,0 -49.31,-3.78 -65.54,-11.26 -16.19,-7.48 -26.81,-18.69 -31.75,-33.55l111.12 0 0 -60.5 -109.68 0c6.6,-14.46 17.54,-25.15 32.78,-32.1 15.27,-6.95 35.8,-10.41 61.66,-10.41 3.99,0 7.02,0.04 9.18,0.11 2.11,0.03 4.16,0.14 6.06,0.28l0 -61.63 -7.62 0c-25.71,0 -48.19,1.91 -67.41,5.68 -19.26,3.81 -35.46,9.53 -48.65,17.22 -21.73,12.73 -38.42,28.78 -50.1,48.19 -11.71,19.4 -17.53,40.74 -17.53,64.06 0,23.28 5.86,44.73 17.64,64.24 11.75,19.55 28.4,35.67 49.99,48.4 13.19,7.66 29.39,13.41 48.65,17.18 19.22,3.78 41.7,5.68 67.41,5.68l7.62 0 0 -61.8z"/>
   <path class="fil2 str0" d="M1995.19 3307.64c-1.52,0 -3.25,0.03 -5.26,0.1 -2.01,0.07 -4.83,0.11 -8.57,0.11 -27.48,0 -49.32,-3.78 -65.55,-11.26 -16.19,-7.48 -26.81,-18.69 -31.75,-33.55l111.13 0 0 -60.5 -109.68 0c6.59,-14.46 17.53,-25.15 32.77,-32.1 15.28,-6.95 35.81,-10.41 61.67,-10.41 3.98,0 7.02,0.04 9.17,0.11 2.12,0.03 4.16,0.14 6.07,0.28l0 -61.63 -7.62 0c-25.72,0 -48.19,1.91 -67.42,5.68 -19.26,3.81 -35.45,9.53 -48.65,17.22 -21.73,12.73 -38.42,28.78 -50.09,48.19 -11.71,19.4 -17.54,40.74 -17.54,64.06 0,23.28 5.86,44.73 17.64,64.24 11.75,19.55 28.4,35.67 49.99,48.4 13.2,7.66 29.39,13.41 48.65,17.18 19.23,3.78 41.7,5.68 67.42,5.68l7.62 0 0 -61.8z"/>
   <path class="fil2 str0" d="M2105.5 3369.44l0 -93.35c0,-13.01 -0.67,-26.88 -1.98,-41.69 -1.3,-14.79 -3.31,-31.23 -6.06,-49.25 4.79,13.02 13.61,30.02 26.38,51.08 2.47,4.13 4.34,7.23 5.58,9.21l57.54 95.28c7.83,12.98 15.06,21.73 21.73,26.28 6.66,4.52 14.74,6.78 24.23,6.78 11.12,0 20.11,-3.42 26.92,-10.2 6.77,-6.81 10.2,-15.66 10.2,-26.67l0 -238.12 -70.95 0 0 84.52c0,7.16 0.46,17.5 1.34,30.98 0.88,13.47 2.15,28.54 3.81,45.15 -2.75,-7.79 -6.42,-16.3 -11,-25.5 -4.63,-9.21 -10.98,-20.53 -19.09,-34.05l-38.73 -64.24c-9.92,-16.65 -18.91,-27.87 -27.03,-33.72 -8.11,-5.86 -17.81,-8.79 -29.07,-8.79 -13.61,0 -24.51,4.24 -32.66,12.74 -8.19,8.54 -12.28,20.04 -12.28,34.5l0 229.06 71.12 0z"/>
   <path class="fil2 str0" d="M2503.82 3369.44l0 -174.63c0,-11.46 2.89,-20.35 8.68,-26.74 5.75,-6.38 13.79,-9.56 24.09,-9.56 9.21,0 16.8,2.75 22.79,8.26 6,5.47 8.96,12.35 8.96,20.67 0,9.46 -3.56,16.9 -10.72,22.4 -7.13,5.47 -16.97,8.22 -29.49,8.22l-11.33 0 0 64.63 7.62 0c36.02,0 64.84,-8.61 86.5,-25.86 21.67,-17.32 32.5,-40.07 32.5,-68.44 0,-26.6 -10.09,-49 -30.24,-67.2 -20.14,-18.2 -45.12,-27.31 -74.93,-27.31 -32.42,0 -58.56,9.32 -78.35,27.87 -19.79,18.59 -29.67,43.08 -29.67,73.45l0 174.24 73.59 0z"/>
   <path class="fil2 str0" d="M2745.85 3369.44l0 -163.3c0,-15 3.32,-26.43 10.02,-34.29 6.64,-7.87 16.37,-11.82 29.14,-11.82 12.1,0 21.73,3.85 28.9,11.54 7.12,7.69 10.68,17.99 10.68,31l0 3.18 -65.75 0 0 63.54 65.75 0 0 100.15 73.24 0 0 -159.88c0,-35.03 -10.33,-62.97 -30.94,-83.93 -20.63,-20.92 -47.94,-31.36 -81.88,-31.36 -33.93,0 -61.17,10.41 -81.63,31.29 -20.5,20.85 -30.73,48.86 -30.73,84l0 159.88 73.2 0z"/>
   <path class="fil2 str0" d="M3010.16 3369.06l0 -176.14c0,-11.96 2.75,-21.24 8.22,-27.76 5.54,-6.57 13.27,-9.85 23.36,-9.85 7.65,0 14.11,2.4 19.22,7.2 5.19,4.76 7.76,10.83 7.76,18.13 0,8.43 -3.03,14.82 -9.1,19.09 -6.03,4.27 -14.96,6.42 -26.77,6.42l-10.94 0 0 60.68 6.81 0c18.84,0 31.54,2.64 38.13,7.93 6.6,5.3 9.92,15.07 9.92,29.28l0 65.41 73.38 0 0 -82.02c0,-18.28 -4.06,-31.72 -12.28,-40.36 -8.15,-8.61 -21.66,-13.9 -40.5,-15.77 15.1,-4.55 26.92,-12.03 35.49,-22.51 8.5,-10.44 12.77,-22.54 12.77,-36.26 0,-21.59 -10.09,-40.04 -30.23,-55.49 -20.11,-15.42 -44.56,-23.15 -73.28,-23.15 -31.46,0 -56.93,9.04 -76.41,27.13 -19.43,18.07 -29.14,41.77 -29.14,71.12l0 176.92 73.59 0z"/>
   <path class="fil2 str0" d="M3258.83 3369.44l0 -206.38c0.81,0 2.05,-0.07 3.64,-0.17 1.51,-0.14 2.75,-0.18 3.56,-0.18 23.92,0 43.5,6.63 58.67,20 15.2,13.37 22.79,30.31 22.79,50.84 0,20.18 -7.13,36.83 -21.45,49.99 -14.29,13.16 -32.92,20.14 -55.88,20.88l0 65.02c18.45,-0.74 34.92,-3.11 49.49,-6.99 14.57,-3.91 27.34,-9.34 38.35,-16.26 20.64,-13.23 36.62,-29.63 48.05,-49.25 11.39,-19.54 17.07,-40.57 17.07,-63 0,-23.46 -6.24,-45.09 -18.73,-65.02 -12.52,-19.9 -30.23,-36.41 -53.2,-49.53 -12.77,-7.3 -27.41,-12.52 -43.92,-15.77 -16.51,-3.21 -39.09,-4.83 -67.84,-4.83l-54.22 0 0 270.65 73.62 0z"/>
   <polygon class="fil2 str0" points="3530.74,3098.8 3457.32,3098.8 3457.32,3369.45 3530.74,3369.45 "/>
   <path class="fil2 str0" d="M3648.26 3369.44l4.55 0c23.92,0 41.35,-1.24 52.36,-3.67 11,-2.47 20.88,-6.53 29.67,-12.21 10.05,-6.56 17.88,-15.06 23.53,-25.5 5.61,-10.48 8.43,-21.8 8.43,-34.05 0,-14.21 -4.13,-27.37 -12.35,-39.47 -8.29,-12.1 -20.28,-22.54 -36.09,-31.36l-55.46 -30.27c-6.59,-3.63 -11.46,-7.27 -14.64,-10.87 -3.17,-3.56 -4.76,-7.19 -4.76,-10.86 0,-3.78 2.05,-6.46 6.1,-8.05 4.03,-1.55 11.43,-2.32 22.16,-2.32l77.29 0 0 -62.02 -67.41 0c-26.53,0 -45.69,1.37 -57.51,4.05 -11.81,2.76 -21.8,7.34 -29.88,13.94 -8.64,6.77 -15.2,15.03 -19.61,24.62 -4.38,9.67 -6.56,20.39 -6.56,32.25 0,12.24 3.84,24.09 11.53,35.63 7.66,11.5 18,20.95 30.94,28.26l56.66 31.36c6.88,3.91 11.99,7.72 15.27,11.43 3.28,3.7 4.94,7.48 4.94,11.25 0,4.27 -1.62,7.55 -4.83,9.81 -3.25,2.29 -7.8,3.42 -13.72,3.42l-101.64 0 0 64.63 81.03 0z"/>
   <path class="fil2 str0" d="M3983.51 3307.64c-1.52,0 -3.28,0.03 -5.26,0.1 -2.01,0.07 -4.87,0.11 -8.57,0.11 -27.48,0 -49.35,-3.78 -65.55,-11.26 -16.22,-7.48 -26.81,-18.69 -31.75,-33.55l111.13 0 0 -60.5 -109.68 0c6.56,-14.46 17.53,-25.15 32.74,-32.1 15.27,-6.95 35.84,-10.41 61.66,-10.41 3.99,0 7.06,0.04 9.18,0.11 2.15,0.03 4.16,0.14 6.1,0.28l0 -61.63 -7.66 0c-25.68,0 -48.15,1.91 -67.41,5.68 -19.23,3.81 -35.46,9.53 -48.65,17.22 -21.7,12.73 -38.42,28.78 -50.09,48.19 -11.68,19.4 -17.54,40.74 -17.54,64.06 0,23.28 5.89,44.73 17.64,64.24 11.75,19.55 28.43,35.67 49.99,48.4 13.19,7.66 29.42,13.41 48.65,17.18 19.26,3.78 41.73,5.68 67.41,5.68l7.66 0 0 -61.8z"/>
   <path class="fil3" d="M1768.75 2592.17c84.45,210.43 328.72,207.32 578.77,196.46l0 152.96c-370.74,120.41 -1005.74,-90.06 -613.03,-359.69 12.03,-8.25 28.83,-3.28 34.26,10.27z"/>
   <path class="fil3" d="M2642.13 2924.93c-90.42,0 -163.76,-73.31 -163.76,-163.76 0,-90.41 73.34,-163.72 163.76,-163.72 90.42,0 163.76,73.31 163.76,163.72 0,90.45 -73.34,163.76 -163.76,163.76zm237.56 -121.74c-14.92,1.9 -28.86,-1.45 -41.48,-11.86 13.47,-70.69 4.97,-138.81 -72.71,-198.75l24.76 -31.26c-131.97,-97.96 -358.74,-47.52 -388.9,160.52l0 239.29c0,20.74 16.83,37.6 37.57,37.6l464.57 0c20.78,0 37.58,-16.86 37.58,-37.6l0 -43.22c-34.29,-36.72 -58.21,-74.58 -61.39,-114.72z"/>
   <path class="fil1" d="M2761.04 2752.71c0,66.11 -53.59,119.7 -119.7,119.7 -66.07,0 -119.66,-53.59 -119.66,-119.7 0,-66.08 53.59,-119.66 119.66,-119.66 66.11,0 119.7,53.58 119.7,119.66z"/>
   <path class="fil1" d="M2682.54 2243.56c-275.91,-85.58 -374.82,54.61 -382.44,311.33l-20.47 0c-47.41,-234.85 87.07,-474.74 402.91,-322.13l0 10.8z"/>
   <path class="fil3" d="M2249.37 2739.17c-233.04,-568.85 271.08,-822.04 536.05,-503.2 2.57,3.07 7.41,-0.14 5.54,-3.64 -122.45,-224.08 -440.59,-340.92 -714.2,-171.38 -6.25,3.88 -12.28,8.15 -18.06,12.74 -237.39,188.63 -321.74,509.48 -117.34,613.69 107.32,53.66 209.55,70.91 307.03,53.62 0.84,-0.14 1.3,-1.05 0.98,-1.83z"/>
   <path class="fil1" d="M2387.37 1934.36l61.41 10.52 96.95 -16.97 0 37.99 18.17 9.67 0 -54.12 124.03 -17 0 138.18 146.26 50.91 0 461.36c10.76,-7.37 23.5,-9.88 41.17,0l363.79 114.65c4.34,1.38 8.99,-1.02 10.37,-5.4 1.3,-4.19 -0.85,-8.71 -4.97,-10.26l-371.62 -140.72 0 -106.97 362.76 115.43c5.43,1.73 11.01,-1.97 11.54,-7.62 0.35,-4.02 -2.01,-7.76 -5.82,-9.13l-370.1 -135.05 0 -110.66 368.97 114.83c3.88,1.16 7.79,-1.52 8.08,-5.54 0.17,-2.72 -1.45,-5.26 -4.03,-6.21l-376.23 -141.04 0 -118.78 126.85 44.41 -0.81 58.99 18.56 4.86 0 -58.17 128.48 44.42 2.44 60.6 19.4 6.49 0 -59.83 120.37 43.68 0 641.49 37.18 0 0 -1223.08c0,-15.52 -9.98,-29.32 -24.73,-34.19l-427.36 -141.35c-9.52,-3.14 -19.68,-3.96 -29.63,-2.37l-220.03 35.67c-19.79,3.17 -34.32,20.25 -34.32,40.32l0 38.74 -153.74 20.77c-24.84,3.39 -43.39,24.59 -43.39,49.71l0 260.77z"/>
   <path class="fil4" d="M2623.01 1594.76l0 -37.43 214.91 -32.59 0 100.18 -126.86 -40.14c-3.88,-1.24 -7.97,-1.59 -12.03,-0.99l-76.02 10.97z"/>
   <path class="fil4" d="M2423.71 1781.26l0 -101.63c0,-11.05 8.05,-20.43 18.91,-22.16l103.08 -16.4 0 120.79 -121.99 19.4z"/>
   <polygon class="fil4" points="2563.89,1638.65 2687.12,1620.48 2687.12,1737.22 2563.89,1759.87 "/>
   <polygon class="fil4" points="2423.71,1799.04 2545.7,1781.26 2545.7,1908.89 2423.71,1927.52 "/>
   <polygon class="fil4" points="2563.89,1776.82 2687.12,1758.23 2687.12,1886.32 2563.89,1906.5 "/>
   <polygon class="fil4" points="2722.66,1740.87 2722.66,1624.91 2837.95,1664.49 2837.95,1781.26 "/>
   <polygon class="fil4" points="2722.66,1889.57 2722.66,1761.06 2837.95,1804.98 2837.95,1934.38 "/>
   <polygon class="fil4" points="2719.7,2036.75 2719.7,1908.52 2837.95,1952.3 2837.95,2081.45 "/>
   <polygon class="fil4" points="2870.11,1794.18 2870.11,1664.89 2993.72,1707.75 2993.72,1838.63 "/>
   <polygon class="fil4" points="2870.11,1940.84 2870.11,1811.54 2993.72,1854.37 2993.72,1985.29 "/>
   <polygon class="fil4" points="2870.11,2085.74 2870.11,1956.41 2993.72,1999.27 2993.72,2130.16 "/>
   <polygon class="fil4" points="2870.11,1648.76 2872.51,1520.28 2993.72,1562.3 2993.72,1693.18 "/>
   <polygon class="fil4" points="3012.33,1838.62 3012.33,1713.78 3143.21,1759.85 3143.21,1885.47 "/>
   <polygon class="fil4" points="3012.33,1986.21 3012.33,1861.4 3143.21,1907.44 3143.21,2033.06 "/>
   <polygon class="fil4" points="3012.84,2133.8 3012.84,2008.99 3143.76,2055.02 3143.76,2180.65 "/>
   <polygon class="fil4" points="3012.33,1694.81 3012.33,1569.96 3143.21,1616.03 3143.21,1741.69 "/>
   <polygon class="fil4" points="3160.98,1891.54 3160.98,1766.73 3282.97,1807.08 3282.97,1934.37 "/>
   <polygon class="fil4" points="3160.98,1749.75 3160.98,1624.91 3282.97,1665.3 3282.97,1792.58 "/>
   <polygon class="fil4" points="3160.98,2036.58 3160.98,1911.76 3282.97,1952.97 3282.97,2081.42 "/>
   <polygon class="fil4" points="3160.98,2183.1 3160.98,2058.25 3282.97,2099.45 3282.97,2227.93 "/>
   <path class="fil1" d="M2832.9 2612.56c4.34,-6.35 10.97,-10.3 19.83,-11.88 5.5,-0.99 11.11,1.41 14.46,5.92l53.27 71.48c16.12,21.69 8.82,52.81 -15.41,64.66 -5.44,2.68 -11.43,4.83 -17.85,6.6 -7.91,2.15 -15.84,-3.39 -16.83,-11.54 -4.87,-40.92 -10.44,-76.06 -36.41,-106.82 -4.44,-5.22 -4.9,-12.77 -1.06,-18.42z"/>
   <path class="fil1" d="M2971.77 2733.69l8.61 -37.67 261.59 101.7c5.39,2.09 7.9,8.29 5.5,13.52 -2.08,4.62 -7.34,6.98 -12.17,5.46l-263.53 -83.01z"/>
   <path class="fil1" d="M2963.71 2933.54l0 31.75 390.63 0c0.92,0 1.73,0.57 2.12,1.34l12.07 25.83c1.76,3.81 5.6,6.28 9.84,6.28 6,0 10.86,-4.91 10.86,-10.9l0 -41.39c0,-7.12 -5.82,-12.91 -12.94,-12.91l-412.58 0z"/>
  </g>
 </g>
</svg>
